<svg width="69" height="30" viewBox="0 0 69 30" fill="none" xmlns="http://www.w3.org/2000/svg">
<path d="M0 29.7711H0.824194V22.6732H0V29.7711Z" fill="white"/>
<path d="M4.96341 24.4896C4.1692 24.4896 3.6327 24.8872 3.39499 25.3727V24.5796H2.5708V29.7702H3.39499V26.5945C3.39499 25.6615 4.04035 25.2049 4.74458 25.2049C5.51879 25.2049 5.86646 25.5815 5.86646 26.4945V29.7702H6.69066V26.5545C6.69066 25.0461 5.94644 24.4896 4.96341 24.4896Z" fill="white"/>
<path d="M9.91667 28.9367L8.52709 24.5792H7.63403L9.41016 29.7709H10.3832L12.1304 24.5792H11.2763L9.91667 28.9367Z" fill="white"/>
<path d="M15.1475 25.1748C15.9817 25.1748 16.4583 25.6014 16.5371 26.6733H13.678C13.8168 25.7502 14.3333 25.1748 15.1475 25.1748ZM15.1475 24.4895C13.758 24.4895 12.7949 25.6014 12.7949 27.1898C12.7949 28.7982 13.8079 29.8601 15.2475 29.8601C16.3283 29.8601 16.9637 29.3136 17.3013 28.6793L16.6371 28.3017C16.3583 28.7982 16.0017 29.1747 15.2564 29.1747C14.2145 29.1747 13.688 28.5194 13.6491 27.3386H17.3813V27.0709C17.3813 25.2148 16.3194 24.4895 15.1475 24.4895Z" fill="white"/>
<path d="M21.0835 24.4896C20.2893 24.4896 19.7528 24.8872 19.5151 25.3727V24.5796H18.6909V29.7702H19.5151V26.5945C19.5151 25.6615 20.1605 25.2049 20.8647 25.2049C21.6389 25.2049 21.9866 25.5815 21.9866 26.4945V29.7702H22.8108V26.5545C22.8108 25.0461 22.0666 24.4896 21.0835 24.4896Z" fill="white"/>
<path d="M26.1359 29.1652C25.7294 29.1652 25.5505 28.9175 25.5505 28.431V25.2742H26.8601V24.5789H25.5505V23.0304L24.7263 23.2293V24.5789H23.9321V25.2742H24.7263V28.5899C24.7263 29.3341 25.2129 29.8595 26.0959 29.8595C26.6524 29.8595 26.9701 29.6518 27.1689 29.4929L26.8501 28.9264C26.7113 29.0264 26.5136 29.1652 26.1359 29.1652Z" fill="white"/>
<path d="M30.1563 25.1748C30.9905 25.1748 31.4659 25.6014 31.5459 26.6733H28.6868C28.8256 25.7502 29.3421 25.1748 30.1563 25.1748ZM30.1563 24.4895C28.7668 24.4895 27.8037 25.6014 27.8037 27.1898C27.8037 28.7982 28.8167 29.8601 30.2552 29.8601C31.3371 29.8601 31.9724 29.3136 32.3101 28.6793L31.6448 28.3017C31.3671 28.7982 31.0094 29.1747 30.2652 29.1747C29.2233 29.1747 28.6968 28.5194 28.6568 27.3386H32.3901V27.0709C32.3901 25.2148 31.3282 24.4895 30.1563 24.4895Z" fill="white"/>
<path d="M37.4324 27.1799C37.4324 28.5695 36.7471 29.1749 35.804 29.1749C34.7921 29.1749 34.3156 28.4906 34.3156 27.1799C34.3156 25.8203 34.951 25.175 35.814 25.175C36.7071 25.175 37.4324 25.7904 37.4324 27.1799ZM37.4024 25.4327C37.1048 24.9273 36.4794 24.4896 35.6952 24.4896C34.4145 24.4896 33.4614 25.4527 33.4614 27.1399C33.4614 28.7983 34.3356 29.8602 35.6952 29.8602C36.4794 29.8602 37.1048 29.4537 37.4024 28.9372V29.7703H38.2266V22.2959H37.4024V25.4327Z" fill="white"/>
<path d="M42.1478 23.8544V24.5786H41.4036V25.2739H42.1478V29.7704H42.972V25.2739H44.1627V24.5786H42.972V23.7644C42.972 23.239 43.2297 22.8713 43.7162 22.8713C44.0539 22.8713 44.2516 22.9813 44.4115 23.0602L44.6193 22.4248C44.3815 22.286 44.0739 22.1871 43.6862 22.1871C42.7032 22.1871 42.1478 22.8025 42.1478 23.8544Z" fill="white"/>
<path d="M47.2498 29.1748C46.2468 29.1748 45.6514 28.3906 45.6514 27.1798C45.6514 25.9591 46.2568 25.1749 47.2498 25.1749C48.2328 25.1749 48.8482 25.9591 48.8482 27.1798C48.8482 28.3806 48.2428 29.1748 47.2498 29.1748ZM47.2498 24.4896C45.8502 24.4896 44.7983 25.5914 44.7983 27.1798C44.7983 28.7283 45.8302 29.8601 47.2398 29.8601C48.6494 29.8601 49.7013 28.7682 49.7013 27.1698C49.7013 25.5814 48.6494 24.4896 47.2498 24.4896Z" fill="white"/>
<path d="M51.8457 25.413V24.5788H51.0215V29.7705H51.8457V26.9214C51.8457 25.6418 52.551 25.2341 53.1064 25.2341C53.4341 25.2341 53.5829 25.3041 53.7418 25.393L54.0794 24.6976C53.8306 24.5588 53.5629 24.4899 53.2053 24.4899C52.5799 24.4899 52.1134 24.8865 51.8457 25.413Z" fill="white"/>
<path d="M56.4729 29.7711H57.3071V22.2967H56.4729V29.7711Z" fill="white"/>
<path d="M59.4906 22.2065C59.1929 22.2065 58.9441 22.4554 58.9441 22.753C58.9441 23.0507 59.1929 23.2984 59.4906 23.2984C59.7883 23.2984 60.036 23.0507 60.036 22.753C60.036 22.4554 59.7883 22.2065 59.4906 22.2065Z" fill="white"/>
<path d="M59.0933 29.7711H59.9175V24.5793H59.0933V29.7711Z" fill="white"/>
<path d="M61.8826 23.8544V24.5786H61.1384V25.2739H61.8826V29.7704H62.7068V25.2739H63.8976V24.5786H62.7068V23.7644C62.7068 23.239 62.9645 22.8713 63.4511 22.8713C63.7887 22.8713 63.9876 22.9813 64.1464 23.0602L64.3541 22.4248C64.1164 22.286 63.8087 22.1871 63.4211 22.1871C62.4391 22.1871 61.8826 22.8025 61.8826 23.8544Z" fill="white"/>
<path d="M66.7662 25.1748C67.6004 25.1748 68.0769 25.6014 68.1558 26.6733H65.2977C65.4355 25.7502 65.952 25.1748 66.7662 25.1748ZM69 27.0709C69 25.2148 67.9381 24.4895 66.7662 24.4895C65.3766 24.4895 64.4136 25.6014 64.4136 27.1898C64.4136 28.7982 65.4266 29.8601 66.8662 29.8601C67.9469 29.8601 68.5823 29.3136 68.92 28.6793L68.2557 28.3017C67.978 28.7982 67.6204 29.1747 66.875 29.1747C65.8331 29.1747 65.3066 28.5194 65.2678 27.3386H69V27.0709Z" fill="white"/>
<path fill-rule="evenodd" clip-rule="evenodd" d="M6.52097 12.4112H3.73848V9.4254H6.45432C7.81169 9.4254 8.45705 10.0319 8.45705 10.9072C8.45705 12.0068 7.65618 12.4112 6.52097 12.4112ZM3.73848 3.54607H6.52097C7.38848 3.54607 7.9672 4.12923 7.9672 4.9823C7.9672 5.65543 7.43291 6.3741 6.45432 6.3741H3.73848V3.54607ZM9.74776 7.67593C9.74776 7.67593 11.8394 6.95726 11.8394 4.55577C11.8394 1.74995 9.85884 0.381481 7.1219 0.381481H0.000732422V15.5757H7.76726C10.1488 15.5757 12.5069 13.8918 12.5069 11.3337C12.5069 8.32684 9.74776 7.69814 9.74776 7.67593Z" fill="white"/>
<path fill-rule="evenodd" clip-rule="evenodd" d="M20.7274 12.2985C18.5691 12.2985 17.5006 10.369 17.5006 7.96756C17.5006 5.58828 18.5691 3.65776 20.7274 3.65776C22.8856 3.65776 23.9764 5.58828 23.9764 7.96756C23.9764 10.369 22.8856 12.2985 20.7274 12.2985ZM20.7274 -1.62125e-05C16.3209 -1.62125e-05 13.7395 3.52335 13.7395 7.96756C13.7395 12.434 16.3209 15.934 20.7274 15.934C25.1549 15.934 27.7152 12.434 27.7152 7.96756C27.7152 3.52335 25.1549 -1.62125e-05 20.7274 -1.62125e-05Z" fill="white"/>
<path fill-rule="evenodd" clip-rule="evenodd" d="M35.8244 6.35138L35.2901 6.23919C33.995 5.96706 32.9753 5.63271 32.9753 4.71299C32.9753 3.7033 33.955 3.29898 34.8225 3.29898C36.091 3.29898 37.204 3.92768 37.9382 4.71299L40.2975 2.37815C39.2289 1.1663 37.4717 -1.62125e-05 34.7558 -1.62125e-05C31.5513 -1.62125e-05 29.1253 1.79499 29.1253 4.78075C29.1253 7.49548 31.0925 8.85506 33.4873 9.35824L34.0216 9.47043C36.0088 9.88808 36.7375 10.1891 36.7375 11.1533C36.7375 12.0519 35.9133 12.6572 34.6892 12.6572C33.1985 12.6572 31.8634 12.0074 30.8393 10.7045L28.4133 13.0838C29.7485 14.6777 31.4402 15.934 34.7336 15.934C37.5828 15.934 40.6085 14.319 40.6085 10.9744C40.6085 7.47326 37.9915 6.8068 35.8244 6.35138Z" fill="white"/>
<path fill-rule="evenodd" clip-rule="evenodd" d="M49.0742 12.2985C47.4047 12.2985 45.6463 10.9111 45.6463 7.87758C45.6463 5.16952 47.2714 3.65776 48.962 3.65776C50.2982 3.65776 51.0991 4.28645 51.7223 5.3639L54.7935 3.32119C53.2573 1.00967 51.4546 0.0221968 48.9409 0.0221968C44.3556 0.0221968 41.863 3.59111 41.863 7.87758C41.863 12.3884 44.6233 15.934 48.8965 15.934C51.9 15.934 53.3473 14.8799 54.9046 12.635L51.8111 10.5479C51.188 11.5809 50.5204 12.2985 49.0742 12.2985Z" fill="white"/>
<path fill-rule="evenodd" clip-rule="evenodd" d="M64.9939 0.381268V5.96957H60.3875V0.381268H56.4043V15.5755H60.3875V9.58291H64.9939V15.5755H68.9993V0.381268H64.9939Z" fill="white"/>
</svg>
