<svg width="88" height="12" viewBox="0 0 88 12" fill="none" xmlns="http://www.w3.org/2000/svg">
<path d="M9.77351 2.44799V2.44677H5.82127V0.000793457C4.63601 0.631167 3.83008 1.87172 3.83008 3.29845V6.18783C3.83008 8.25421 5.52058 9.92888 7.60467 9.92888H9.77351V9.92767C11.8323 9.89819 13.4931 8.23563 13.4931 6.18783C13.4931 4.14002 11.8323 2.47746 9.77351 2.44799Z" fill="white"/>
<path d="M9.71802 4.42877H5.83667V6.18784C5.83667 7.15905 6.63201 7.94651 7.61111 7.94651H9.71802C10.6983 7.94651 11.4929 7.15905 11.4929 6.18784C11.4929 5.21624 10.6983 4.42877 9.71802 4.42877Z" fill="#7B7B7B"/>
<path d="M9.77343 9.92768V9.9289H7.60459C5.5205 9.9289 3.83 8.25382 3.83 6.18784V3.29846C3.83 1.87174 4.63593 0.631585 5.8212 0.000403605V2.44679H9.77343V2.448C11.8323 2.47748 13.493 4.13963 13.493 6.18784C13.493 8.23565 11.8323 9.8982 9.77343 9.92768ZM10.8666 0H5.82568C2.60848 0 0 2.5849 0 5.77352C0 8.96213 2.60848 11.5474 5.82568 11.5474H10.8666C14.0838 11.5474 16.6919 8.96213 16.6919 5.77352C16.6919 2.5849 14.0838 0 10.8666 0Z" fill="#7B7B7B"/>
<path d="M78.0283 3.68179C76.1296 3.68179 74.9011 5.10493 74.9011 6.81272C74.9011 8.69455 76.2251 9.92786 78.1238 9.92786H81.985V8.31508H78.1881C77.3899 8.31508 76.8956 7.99886 76.7041 7.46136H82.0009V6.43286C82.0009 4.74164 80.7726 3.68179 79.0654 3.68179H78.0283ZM78.0283 5.18415H79.0654C79.9271 5.18415 80.2941 5.57956 80.2941 6.05365H76.7041C76.9115 5.50041 77.3421 5.18415 78.0283 5.18415Z" fill="#7B7B7B"/>
<path d="M69.4927 3.68179C67.7533 3.68179 66.3337 4.75729 66.3337 6.48083C66.3337 8.22011 67.7533 9.29563 69.4927 9.29563H72.1411V9.8654C72.1411 10.1969 71.9012 10.4181 71.5663 10.4181H68.2163V12H71.4867C73.0342 12 73.8798 11.2412 73.8798 9.8654V3.68179H69.4927ZM69.6996 5.32676H72.1411V7.65067H69.6996C68.886 7.65067 68.2163 7.30302 68.2163 6.48083C68.2163 5.67438 68.886 5.32676 69.6996 5.32676Z" fill="#7B7B7B"/>
<path d="M31.4893 3.68179C29.7503 3.68179 28.3303 5.08918 28.3303 6.81272C28.3303 8.53625 29.7503 9.92786 31.4893 9.92786H33.2604C34.9994 9.92786 36.4194 8.53625 36.4194 6.81272C36.4194 5.08918 34.9994 3.68179 33.2604 3.68179H31.4893ZM31.6166 5.32676H33.1331C33.946 5.32676 34.6165 6.00627 34.6165 6.81272C34.6165 7.61916 33.946 8.28353 33.1331 8.28353H31.6166C30.8034 8.28353 30.1333 7.61916 30.1333 6.81272C30.1333 6.00627 30.8034 5.32676 31.6166 5.32676Z" fill="#7B7B7B"/>
<path d="M19.8906 1.62592V6.97094C19.8906 8.59998 21.2792 9.92772 22.9859 9.92772H24.342C26.081 9.92772 27.501 8.5361 27.501 6.81257C27.501 5.08904 26.081 3.68165 24.342 3.68165H21.6299V1.62592H19.8906ZM21.6299 5.32661H24.2147C25.0283 5.32661 25.698 6.00613 25.698 6.81257C25.698 7.61901 25.0124 8.26761 24.2147 8.26761H23.1139C22.1568 8.26761 21.6299 7.61901 21.6299 6.81257V5.32661Z" fill="#7B7B7B"/>
<path d="M52.3955 3.6799C50.6581 3.6799 49.239 5.08615 49.239 6.80766C49.239 8.52999 50.6581 9.92092 52.3955 9.92092H56.554V3.6799H52.3955ZM52.5234 5.32297H54.8166V8.26145H52.5234C51.7102 8.26145 51.0407 7.6137 51.0407 6.80766C51.0407 6.00243 51.7102 5.32297 52.5234 5.32297Z" fill="#7B7B7B"/>
<path d="M88.0002 3.6821V5.32689H86.3407C85.5274 5.32689 84.8576 5.99038 84.8576 6.79722V9.9281H83.1182V6.79722C83.1182 4.91579 84.3784 3.6821 86.2771 3.6821H88.0002Z" fill="#7B7B7B"/>
<path d="M65.2799 6.79722V9.9281H63.5413V6.79722C63.5413 5.99038 62.8711 5.32689 62.057 5.32689H59.5846V9.9281H57.8452V3.6821H62.121C63.8604 3.6821 65.2799 5.07369 65.2799 6.79722Z" fill="#7B7B7B"/>
<path d="M48.2268 1.62579V9.92767H46.4875V1.62579H48.2268Z" fill="#7B7B7B"/>
<path d="M37.4731 6.81297V3.6821H39.2117V6.81297C39.2117 7.61942 39.8816 8.28371 40.6956 8.28371H43.1684V3.6821H44.9078V9.9281H40.6321C38.733 9.9281 37.4731 8.69481 37.4731 6.81297Z" fill="#7B7B7B"/>
</svg>
