<svg width="86" height="13" viewBox="0 0 86 13" fill="none" xmlns="http://www.w3.org/2000/svg">
<g clip-path="url(#clip0)">
<path d="M9.57354 8.95445C8.89168 9.88066 7.78281 10.4298 6.60505 10.4265C4.4975 10.4265 2.9065 8.8916 2.9065 6.85725C2.9065 5.83842 3.2922 4.91883 3.99127 4.26717C4.66968 3.63537 5.59949 3.28804 6.60505 3.28804C7.78625 3.28473 8.89513 3.83715 9.57354 4.76336L9.68374 4.91221L11.8774 3.12595L11.7672 3.00025C10.4827 1.53817 8.59208 0.694656 6.60161 0.701272C2.9616 0.697964 0 3.46005 0 6.85725C0 10.2478 2.9616 13 6.60161 13C8.58864 13.0099 10.4792 12.173 11.7637 10.7176L11.8739 10.5919L9.68029 8.8056L9.57354 8.95445Z" fill="#7B7B7B"/>
<path d="M22.4771 0.181946V12.7023H20.0562V12.1532C19.2951 12.5832 18.3102 12.8512 17.3253 12.8512C14.715 12.8512 12.573 10.959 12.573 8.18703C12.573 5.36541 14.715 3.52291 17.3253 3.52291C18.2827 3.52622 19.2194 3.76108 20.0562 4.20765V0.181946H22.4771ZM20.0562 9.97991V6.35777C19.4845 5.89467 18.6753 5.59365 17.7592 5.59365C16.151 5.59365 14.9595 6.7051 14.9595 8.18373C14.9595 9.71197 16.151 10.7573 17.7592 10.7573C18.658 10.7573 19.488 10.4596 20.0562 9.97991ZM24.5468 4.41273H26.9505V12.7023H24.5468V4.41273ZM29.4403 10.2611C30.5974 10.744 31.479 10.9921 32.6568 10.9921C33.7622 10.9921 34.1961 10.5952 34.1961 10.1288C34.1961 9.61273 33.6589 9.38118 32.2091 9.08347C30.1842 8.65345 28.7172 8.02164 28.7172 6.27838C28.7172 4.6509 30.1187 3.52291 32.2952 3.52291C33.7656 3.52291 34.94 3.8537 35.9593 4.25396L35.1638 5.94759C34.2478 5.61681 33.1768 5.36541 32.2435 5.36541C31.3275 5.36541 30.8626 5.67966 30.8626 6.16261C30.8626 6.6621 31.4342 6.89365 32.9357 7.19136C35.1121 7.62469 36.376 8.35243 36.376 9.99645C36.376 11.7066 35.0088 12.8346 32.6086 12.8346C30.9831 12.8346 29.9293 12.6196 28.5484 11.9713L29.4403 10.2611ZM46.1699 11.0252C45.3228 12.1367 43.9935 12.8346 42.5402 12.8346C39.7061 12.8346 37.4057 10.7606 37.4057 8.18703C37.4057 5.59696 39.7026 3.52291 42.5402 3.52291C44.0451 3.52291 45.3572 4.22088 46.2044 5.31579L44.6478 6.69518C44.1794 6.01706 43.3874 5.60688 42.5402 5.60027C41.0181 5.60027 39.7749 6.76133 39.7749 8.19034C39.7749 9.60281 41.0181 10.7639 42.5402 10.7639C43.3943 10.7573 44.1863 10.3405 44.6478 9.65243L46.1699 11.0252ZM57.1588 8.18373C57.1588 10.7573 54.8619 12.8313 52.0242 12.8313C49.1866 12.8313 46.8897 10.7573 46.8897 8.18373C46.8897 5.59365 49.1866 3.5196 52.0242 3.5196C54.8619 3.5196 57.1588 5.59365 57.1588 8.18373ZM54.793 8.18373C54.793 6.75472 53.567 5.59365 52.0277 5.59365C50.5056 5.59365 49.2624 6.75472 49.2624 8.18373C49.2624 9.59619 50.5056 10.7573 52.0277 10.7573C53.5636 10.7573 54.793 9.59619 54.793 8.18373ZM67.5623 3.76108V12.7023H65.1586V12.1036C64.4457 12.57 63.5676 12.8346 62.5999 12.8346C59.8518 12.8346 58.588 11.6074 58.588 8.68322V3.76108H60.9917V8.68322C60.9917 10.0791 61.7045 10.7573 63.0304 10.7573C63.8947 10.7573 64.6041 10.4926 65.1551 10.0428V3.75777H67.5623V3.76108ZM78.4686 7.671V12.7023H76.0648V7.671C76.0648 6.27507 75.352 5.59696 74.0262 5.59696C73.179 5.59696 72.4868 5.86159 71.953 6.31146V12.7023H69.5493V3.685H71.953V4.25065C72.6452 3.78424 73.5096 3.5196 74.4601 3.5196C77.2047 3.5196 78.4686 4.75014 78.4686 7.671ZM83.3724 5.59365V8.78245C83.3724 10.3934 83.6479 10.8565 84.8601 10.8565C85.2733 10.8565 85.6384 10.8069 85.9655 10.7738V12.5005C85.8622 12.5336 85.1356 12.8313 83.7891 12.8313C82.2153 12.8313 80.9549 11.8853 80.9549 9.99314V5.59365H79.6256V3.685H80.9549V0.181946H83.3759V3.685H86V5.59365H83.3724Z" fill="#7B7B7B"/>
<path d="M24.4539 1.36285C24.4539 0.615267 25.0738 0 25.8348 0C26.5959 0 27.202 0.615267 27.202 1.36285C27.202 2.11043 26.5959 2.70916 25.8348 2.70916C25.0669 2.70254 24.447 2.10051 24.4539 1.36285Z" fill="#7B7B7B"/>
</g>
<defs>
<clipPath id="clip0">
<rect width="86" height="13" fill="white"/>
</clipPath>
</defs>
</svg>
