<svg width="80" height="13" viewBox="0 0 80 13" fill="none" xmlns="http://www.w3.org/2000/svg">
<g clip-path="url(#clip0)">
<path d="M13.4792 3.61708C10.9818 3.61708 9.30347 5.20873 9.30347 7.57777C9.30347 10.0204 10.8703 11.5383 13.3929 11.5383C15.9609 11.5383 17.6202 9.97148 17.6202 7.54715C17.6202 5.12296 16.0335 3.61708 13.4792 3.61708ZM13.4963 10.1509C12.2638 10.1509 11.4676 9.15899 11.4676 7.62344C11.4676 6.00754 12.2516 5.00371 13.5135 5.00371C14.7119 5.00371 15.4564 5.97272 15.4564 7.53212C15.4564 9.12295 14.6871 10.1509 13.4963 10.1509Z" fill="#7B7B7B"/>
<path d="M46.8986 3.68822C44.6484 3.68822 43.7302 4.62754 43.7302 6.92991V7.10743C43.7302 8.49799 43.6957 10.03 43.6457 10.8333C43.6457 10.8352 43.6233 11.3253 43.6233 11.3253H45.8846L45.8398 10.8773C45.8036 10.1699 45.7854 9.50154 45.7854 8.83905V8.44582L45.8001 7.32789V6.92991C45.8366 6.13368 46.1094 5.17959 47.2014 5.17959C47.5944 5.17959 48.1254 5.29681 48.2507 5.37039L48.3659 5.43814L48.5941 3.94106L48.516 3.9194C47.9054 3.74893 47.2634 3.68822 46.8986 3.68822Z" fill="#7B7B7B"/>
<path d="M32.8937 5.1644L33.1038 3.68712H30.7665V3.18195C30.8153 2.09059 31.2571 1.53529 32.0802 1.53529C32.5915 1.53529 32.8475 1.53529 33.5375 1.72947L33.6381 1.75752L33.8426 0.286741L33.7687 0.263964C33.2127 0.0906515 32.1828 -9.53674e-07 31.7867 -9.53674e-07C29.8675 -9.53674e-07 28.761 1.12782 28.6717 3.17571C28.6714 3.17978 28.6706 4.56775 28.6706 4.56775L28.6882 7.24495L28.6547 10.5479L28.6194 12.5428V13H30.8008V12.5299L30.749 10.5915C30.749 10.5902 30.7323 8.46179 30.7323 8.46179V6.74208C30.7323 6.74208 30.7508 5.50858 30.7559 5.1644" fill="#7B7B7B"/>
<path d="M37.7934 3.61708C35.2957 3.61708 33.6177 5.20873 33.6177 7.57777C33.6177 10.0204 35.1848 11.5383 37.7071 11.5383C40.2749 11.5383 41.9343 9.97148 41.9343 7.54715C41.9343 5.12296 40.3475 3.61708 37.7934 3.61708ZM37.8097 10.1509C36.5775 10.1509 35.7812 9.15899 35.7812 7.62344C35.7812 6.00754 36.5653 5.00371 37.8279 5.00371C39.0257 5.00371 39.7699 5.97272 39.7699 7.53212C39.7699 9.12295 39.0005 10.1509 37.8097 10.1509Z" fill="#7B7B7B"/>
<path d="M26.4337 9.44869V8.18686L26.4507 6.92369C26.4507 4.90032 25.3151 3.69296 23.413 3.69296H22.1622C20.2593 3.69296 19.1234 4.90032 19.1234 6.9226C19.1234 6.92125 19.1164 7.37803 19.1164 7.37803C19.1164 9.35899 19.1164 9.82906 19.0304 11.2277L19.0244 11.3253H21.2737L21.253 10.7426L21.2023 9.14299L21.1679 7.57547V7.3947C21.1679 6.53329 21.2228 6.28071 21.3998 5.91187C21.6153 5.46226 22.1533 5.17147 22.7704 5.17147C23.3872 5.17147 23.9253 5.46226 24.1407 5.91187C24.3178 6.28071 24.3731 6.53329 24.3731 7.3947V7.57777L24.3383 9.14422L24.2877 10.7429L24.2669 11.3253H26.4725L26.4488 10.8047C26.4507 10.8223 26.4337 9.44869 26.4337 9.44869Z" fill="#7B7B7B"/>
<path d="M71.1283 9.43311L71.1309 9.02456V8.49149C71.1306 8.49338 71.1644 6.90728 71.1644 6.90728C71.1644 5.53759 70.8378 4.76101 70.0378 4.22604C69.5336 3.87277 68.8055 3.67738 67.9883 3.67738C66.8568 3.67738 65.9106 4.03146 65.297 4.66319C64.7645 4.03295 63.972 3.6931 62.9855 3.6931H61.7349C59.832 3.6931 58.696 4.90018 58.696 6.9226C58.696 6.92125 58.6889 7.37735 58.6889 7.37735C58.6889 9.35885 58.6889 9.82906 58.6031 11.2277L58.5969 11.3253H60.8464L60.8259 10.7425L60.775 9.14299L60.7405 7.57533V7.39457C60.7405 6.53316 60.7956 6.28071 60.9729 5.912C61.1882 5.46212 61.726 5.17147 62.3431 5.17147C62.9601 5.17147 63.4981 5.46212 63.7135 5.912C63.8906 6.28071 63.9453 6.53316 63.9453 7.39457V7.57763L63.9108 9.14409L63.8603 10.7429L63.8396 11.3253H66.0455L66.0216 10.8046C66.0232 10.8222 66.0062 9.44911 66.0062 9.44911L66.0066 8.18673L66.0204 6.79239C66.05 6.45606 66.11 6.26392 66.2101 6.03017C66.3043 5.82176 66.4322 5.64722 66.6003 5.49898C66.8424 5.2712 67.2031 5.14138 67.5915 5.14138C68.2316 5.14138 68.7909 5.52785 68.952 6.08031C69.0336 6.3833 69.0514 6.67124 69.0514 7.69946C69.0514 8.89489 69.0354 9.70995 68.9485 10.8449C68.9485 10.8436 68.9145 11.225 68.9145 11.225L68.9054 11.3253H71.1695L71.1458 10.8933C71.1458 10.8947 71.1283 9.43311 71.1283 9.43311Z" fill="#7B7B7B"/>
<path d="M79.998 6.48691L79.9974 6.3285C79.9974 5.11234 79.6169 4.44796 78.6847 4.03521C78.115 3.78452 77.5112 3.67734 76.6652 3.67734C75.6774 3.67734 74.5916 3.83263 73.7597 4.09294L73.6856 4.11638L73.904 5.60585L74.0122 5.55991C74.8026 5.22643 75.6008 5.04973 76.3206 5.04973C77.5169 5.04973 78.0047 5.48647 78.0047 6.55696C78.0047 6.55696 77.9985 6.65901 77.994 6.73665C76.3185 6.64803 75.058 6.76022 74.3544 7.0666C73.3684 7.49588 72.8684 8.16976 72.8684 9.06992C72.8684 9.99841 73.4603 10.8578 74.376 11.2597C75.39 11.704 76.8607 11.5928 77.4462 11.5239C77.924 11.4678 79.5111 11.189 79.8608 9.95802C80.015 9.41654 80.0021 7.21133 79.998 6.48691ZM78.0047 8.03343V8.21813C78.0047 8.92723 77.9826 9.1771 77.8347 9.46613C77.7471 9.63633 77.597 9.77875 77.4015 9.87753C77.0146 10.0729 76.7059 10.111 76.3032 10.111C75.8773 10.111 75.4636 9.95911 75.2237 9.71438C74.9255 9.41085 74.9658 8.93604 75.1548 8.64362C75.4406 8.20093 76.1279 8.02056 77.5274 8.02056C77.5274 8.02056 77.8812 8.03005 78.0047 8.03343Z" fill="#7B7B7B"/>
<path d="M56.65 6.32849C56.65 5.11233 56.2695 4.44782 55.337 4.0352C54.7678 3.78438 54.164 3.6772 53.3181 3.6772C52.3306 3.6772 51.2442 3.83263 50.4129 4.09293L50.3381 4.11637L50.5569 5.60571L50.6649 5.55991C51.4555 5.22643 52.2537 5.04959 52.9737 5.04959C54.1696 5.04959 54.6574 5.48633 54.6574 6.55696C54.6574 6.55696 54.651 6.65885 54.6465 6.7365C52.971 6.64801 51.7104 6.76008 51.0075 7.0666C50.0214 7.49588 49.5215 8.16974 49.5215 9.06977C49.5215 9.99839 50.113 10.8578 51.0283 11.2595C52.0424 11.7045 53.5134 11.5926 54.0981 11.5238C54.5762 11.4678 56.1632 11.1892 56.5137 9.95788C56.6673 9.41654 56.6547 7.21132 56.6506 6.48691L56.65 6.32849ZM54.6574 8.0333V8.218C54.6574 8.92723 54.6355 9.1771 54.4874 9.46613C54.3996 9.63605 54.2495 9.7782 54.0542 9.87739C53.6672 10.0728 53.3586 10.111 52.9557 10.111C52.5297 10.111 52.116 9.9591 51.8761 9.71438C51.5786 9.41071 51.6184 8.93603 51.8073 8.64334C52.0932 8.20078 52.7806 8.02043 54.18 8.02043C54.18 8.02043 54.5338 8.02991 54.6574 8.0333Z" fill="#7B7B7B"/>
<path d="M6.40127 1.61762C7.37544 1.58686 8.3582 1.79948 9.406 2.26725L9.50375 2.31102V0.482087L9.47519 0.473419C8.42123 0.145225 7.26455 -0.0022049 6.03734 0.0365496C4.08362 0.0977983 2.4882 0.735496 1.42337 1.88106C0.442626 2.93529 -0.0482826 4.38832 0.00374508 6.08241C0.0534932 7.7036 0.599112 9.05392 1.5812 9.9866C2.68612 11.0358 4.32767 11.5572 6.32886 11.4942C7.05738 11.4716 7.72033 11.3922 8.4156 11.245L8.5218 11.2225L7.9385 9.75122L7.86354 9.76721C7.43887 9.85882 7.03485 9.91261 6.69587 9.92331C4.20806 10.0008 2.79406 8.61826 2.71414 6.0297C2.63315 3.38192 4.04621 1.69107 6.40127 1.61762Z" fill="#7B7B7B"/>
</g>
<defs>
<clipPath id="clip0">
<rect width="80" height="13" fill="white"/>
</clipPath>
</defs>
</svg>
