<svg width="134" height="180" viewBox="0 0 134 180" fill="none" xmlns="http://www.w3.org/2000/svg">
<mask id="mask0" mask-type="alpha" maskUnits="userSpaceOnUse" x="0" y="0" width="134" height="180">
<rect width="134" height="180" rx="14" fill="#FFEE93"/>
</mask>
<g mask="url(#mask0)">
<rect width="134" height="180" rx="14" fill="#FFEE93"/>
<path d="M129.088 143.363C111.713 140.072 101.75 149.65 96.229 153.956C90.3748 159.308 86.6743 168.542 90.4 186.258C94.1257 203.973 105.106 198.288 134.178 191.062C163.249 183.836 150.807 147.478 129.088 143.363Z" fill="#FF9393"/>
<path d="M129.088 143.363C111.713 140.072 101.75 149.65 96.229 153.956C90.3748 159.308 86.6743 168.542 90.4 186.258C94.1257 203.973 105.106 198.288 134.178 191.062C163.249 183.836 150.807 147.478 129.088 143.363Z" fill="#FF9393"/>
<path d="M29.3059 101.142C22.1629 76.8799 3.47353 70.4463 -5.60747 66.2282C-16.2377 62.2677 -30.4042 63.5805 -50.5223 79.8772C-70.6403 96.1739 -56.2429 106.442 -28.0841 138.73C0.0746623 171.018 38.2347 131.469 29.3059 101.142Z" fill="#FF9393"/>
<path d="M29.3059 101.142C22.1629 76.8799 3.47353 70.4463 -5.60747 66.2282C-16.2377 62.2677 -30.4042 63.5805 -50.5223 79.8772C-70.6403 96.1739 -56.2429 106.442 -28.0841 138.73C0.0746623 171.018 38.2347 131.469 29.3059 101.142Z" fill="#FF9393"/>
<path d="M74.8738 9.02476C58.9948 6.03288 49.8824 14.7771 44.8338 18.7085C39.4796 23.5945 36.0915 32.0207 39.4857 48.1795C42.8799 64.3382 52.9196 59.1453 79.4957 52.5347C106.072 45.9241 94.7224 12.7646 74.8738 9.02476Z" fill="#FF9393"/>
<path d="M74.8738 9.02476C58.9948 6.03288 49.8824 14.7771 44.8338 18.7085C39.4796 23.5945 36.0915 32.0207 39.4857 48.1795C42.8799 64.3382 52.9196 59.1453 79.4957 52.5347C106.072 45.9241 94.7224 12.7646 74.8738 9.02476Z" fill="#FF9393"/>
<path d="M120.373 16.0858C118.117 15.6585 116.824 16.902 116.107 17.4611C115.347 18.1559 114.867 19.3548 115.35 21.6548C115.834 23.9548 117.26 23.2167 121.034 22.2785C124.808 21.3403 123.193 16.62 120.373 16.0858Z" fill="#FF9393"/>
<path d="M120.373 16.0858C118.117 15.6585 116.824 16.902 116.107 17.4611C115.347 18.1559 114.867 19.3548 115.35 21.6548C115.834 23.9548 117.26 23.2167 121.034 22.2785C124.808 21.3403 123.193 16.62 120.373 16.0858Z" fill="#FF9393"/>
</g>
</svg>
