<svg width="134" height="180" viewBox="0 0 134 180" fill="none" xmlns="http://www.w3.org/2000/svg">
<rect width="134" height="180" rx="14" fill="#FFC09F"/>
<mask id="mask0" mask-type="alpha" maskUnits="userSpaceOnUse" x="0" y="0" width="134" height="180">
<rect width="134" height="180" rx="14" fill="#79ADDC"/>
</mask>
<g mask="url(#mask0)">
<rect width="134" height="180" rx="14" fill="#FFC09F"/>
<path d="M121.204 -4.03885C96.3545 -8.74648 82.1055 4.95215 74.2102 11.1101C65.8376 18.7643 60.5453 31.9706 65.8737 57.3068C71.2021 82.6431 86.9059 74.5128 128.483 64.1779C170.06 53.843 152.265 1.84569 121.204 -4.03885Z" fill="#FF9393"/>
<path d="M22.4272 140.821C14.4889 139.317 9.93692 143.693 7.41468 145.661C4.73999 148.106 3.04933 152.325 4.75153 160.418C6.45373 168.512 11.4705 165.915 24.7526 162.613C38.0347 159.312 32.3501 142.701 22.4272 140.821Z" fill="#FF9393"/>
<path d="M97.0032 117.542C77.1803 113.786 65.8136 124.714 59.5153 129.626C52.8363 135.732 48.6145 146.267 52.8651 166.479C57.1157 186.69 69.643 180.204 102.81 171.96C135.977 163.715 121.782 122.236 97.0032 117.542Z" fill="#FF9393"/>
</g>
</svg>
