<svg width="216" height="133" viewBox="0 0 216 133" fill="none" xmlns="http://www.w3.org/2000/svg">
<path d="M62.8877 57.3397C80.0877 50.9397 148.721 53.0063 180.888 54.8397C217.388 56.3197 218.888 83.3397 211.888 111.34C207.723 127.997 149.838 131.371 104.839 132C74.1996 132.428 50.3395 132 50.3395 132C-18.8071 132 -0.612283 106.84 11.8877 85.8397C24.3877 64.8397 41.3877 65.3397 62.8877 57.3397Z" fill="#E5E5E5"/>
<path fill-rule="evenodd" clip-rule="evenodd" d="M192.559 13.8728H120.43V7.39609C120.43 5.99115 121.566 4.85205 122.968 4.85205H190.02C191.422 4.85205 192.559 5.99115 192.559 7.39609V13.8728Z" fill="#7B7B7B"/>
<path fill-rule="evenodd" clip-rule="evenodd" d="M190.02 76.2336H122.968C121.566 76.2336 120.43 75.0946 120.43 73.6895V13.1143H192.559V73.6895C192.559 75.0946 191.422 76.2336 190.02 76.2336Z" fill="#EEEEEE"/>
<path fill-rule="evenodd" clip-rule="evenodd" d="M126.291 9.05021C126.291 9.93194 125.578 10.6468 124.698 10.6468C123.818 10.6468 123.105 9.93194 123.105 9.05021C123.105 8.16849 123.818 7.45361 124.698 7.45361C125.578 7.45361 126.291 8.16849 126.291 9.05021Z" fill="#FF9393"/>
<path fill-rule="evenodd" clip-rule="evenodd" d="M132.241 9.05021C132.241 9.93194 131.528 10.6468 130.648 10.6468C129.768 10.6468 129.055 9.93194 129.055 9.05021C129.055 8.16849 129.768 7.45361 130.648 7.45361C131.528 7.45361 132.241 8.16849 132.241 9.05021Z" fill="#FFC09F"/>
<path fill-rule="evenodd" clip-rule="evenodd" d="M138.191 9.05021C138.191 9.93194 137.478 10.6468 136.598 10.6468C135.718 10.6468 135.005 9.93194 135.005 9.05021C135.005 8.16849 135.718 7.45361 136.598 7.45361C137.478 7.45361 138.191 8.16849 138.191 9.05021Z" fill="#ADF7B6"/>
<path fill-rule="evenodd" clip-rule="evenodd" d="M128.226 67.6478C127.788 67.6478 127.433 67.2926 127.433 66.8546V20.8704C127.433 20.4323 127.788 20.0771 128.226 20.0771H185.551C185.989 20.0771 186.343 20.4323 186.343 20.8704V66.8546C186.343 67.2926 185.989 67.6478 185.551 67.6478H128.226Z" fill="white"/>
<path d="M147.343 40.1209C147.672 39.8387 148.172 39.902 148.421 40.2529L148.434 40.2717L159.97 57.5625L168.893 51.2926C168.999 51.2183 169.122 51.1732 169.25 51.1617L169.278 51.1597L181.068 50.5445C181.474 50.5233 181.821 50.8354 181.842 51.2416C181.863 51.6407 181.562 51.9821 181.166 52.0141L181.145 52.0155L169.566 52.6196L160.2 59.2016C159.867 59.4352 159.41 59.355 159.176 59.0263L159.163 59.0077L147.67 41.7799L134.237 53.2806C133.933 53.5403 133.48 53.5104 133.213 53.217L133.198 53.2002C132.939 52.8969 132.969 52.4434 133.262 52.1766L133.279 52.1617L147.343 40.1209Z" fill="#ADF7B6"/>
<path d="M179.322 29.6857C179.549 29.3479 180.006 29.2577 180.344 29.4843C180.676 29.7067 180.769 30.1518 180.558 30.4876L180.546 30.5062L170.056 46.1472C169.793 46.5395 169.236 46.585 168.912 46.2463L168.897 46.2293L156.908 32.8897L148.597 38.4971C148.48 38.5763 148.342 38.6198 148.201 38.6229L148.173 38.623L133.746 38.3872C133.339 38.3805 133.015 38.0455 133.021 37.6387C133.028 37.2392 133.352 36.9191 133.749 36.9143L133.77 36.9144L147.965 37.1463L156.615 31.3102C156.913 31.109 157.312 31.1531 157.559 31.4116L157.575 31.4284L169.36 44.5409L179.322 29.6857Z" fill="#FFC09F"/>
<path d="M161.151 39.7025C161.334 39.5418 161.585 39.4829 161.821 39.5441L161.845 39.5508L169.525 41.829L180.846 40.0253C181.24 39.9624 181.612 40.2256 181.685 40.6158L181.689 40.6368C181.752 41.0314 181.489 41.4028 181.099 41.4764L181.077 41.48L169.592 43.31C169.493 43.3258 169.393 43.3212 169.296 43.2967L169.267 43.2888L161.815 41.0784L148.866 52.4035C148.627 52.6121 148.283 52.6442 148.011 52.4857L147.99 52.4734L132.521 42.7941C132.176 42.5783 132.071 42.1239 132.287 41.7791C132.499 41.4405 132.941 41.3335 133.283 41.5339L133.302 41.5454L148.308 50.9345L161.151 39.7025Z" fill="#79ADDC"/>
<path fill-rule="evenodd" clip-rule="evenodd" d="M147.868 26.0973H133.357C132.763 26.0973 132.277 25.6102 132.277 25.0149C132.277 24.4195 132.763 23.9325 133.357 23.9325H147.868C148.462 23.9325 148.949 24.4195 148.949 25.0149C148.949 25.6102 148.462 26.0973 147.868 26.0973Z" fill="#E5E5E5"/>
<path fill-rule="evenodd" clip-rule="evenodd" d="M139.478 31.2022H134.078C133.481 31.2022 132.998 30.7176 132.998 30.1199C132.998 29.522 133.481 29.0375 134.078 29.0375H139.478C140.075 29.0375 140.559 29.522 140.559 30.1199C140.559 30.7176 140.075 31.2022 139.478 31.2022Z" fill="#E5E5E5"/>
<path d="M178.608 54.7554C176.078 54.7554 174.034 56.8336 174.034 59.3902C174.034 61.9469 176.078 64.025 178.608 64.025C181.137 64.025 183.182 61.9468 183.182 59.3902C183.182 56.8336 181.137 54.7554 178.608 54.7554ZM178.608 56.4989C180.168 56.4989 181.438 57.7902 181.438 59.3902C181.438 60.9902 180.168 62.2815 178.608 62.2815C177.048 62.2815 175.777 60.9902 175.777 59.3902C175.777 57.7902 177.048 56.4989 178.608 56.4989Z" fill="#E5E5E5"/>
<path d="M181.65 56.9456C182.092 56.7562 182.605 56.9615 182.794 57.4042C183.048 57.9988 183.182 58.6462 183.182 59.3116C183.182 59.8562 183.092 60.3892 182.92 60.8921C182.764 61.3475 182.268 61.59 181.812 61.4337C181.364 61.28 181.122 60.7975 181.264 60.3483L181.271 60.3262C181.381 60.0051 181.438 59.6633 181.438 59.3116C181.438 58.9003 181.36 58.5029 181.211 58.1375L181.191 58.09C181.002 57.6474 181.207 57.135 181.65 56.9456Z" fill="#FFC09F"/>
<g clip-path="url(#clip0)">
<path fill-rule="evenodd" clip-rule="evenodd" d="M128.77 65.548C128.77 65.548 136.084 48.2412 143.601 44.1846C145.734 44.4211 143.521 47.088 141.864 49.2819C141.016 50.404 140.405 51.8548 140.405 51.8548C140.405 51.8548 143.358 51.7652 142.612 54.2115C144.969 54.2713 143.925 56.8371 143.925 56.8371C143.925 56.8371 145.73 56.9738 144.969 59.3731C144.446 61.0222 141.91 62.7934 141.389 64.5639C140.046 69.1279 135.831 70.21 134.498 70.3212C131.121 70.6028 129.332 69.2055 128.77 65.548Z" fill="#FFDECC"/>
<path d="M136.103 52.9394C136.83 50.8444 137.828 50.0211 138.572 50.8447C139.194 51.5339 139.192 53.1681 138.486 54.6006L138.33 54.9205C137.101 57.4686 136.967 58.4649 137.333 59.6327L137.38 59.7774C137.511 60.1791 137.571 60.4352 137.582 60.7572L137.585 61.1259C137.594 62.0444 137.564 62.5818 137.419 63.2161C137.066 64.7588 136.118 65.798 134.364 66.1401C134.235 66.1654 134.11 66.0811 134.084 65.9518C134.059 65.8226 134.144 65.6974 134.273 65.6722C135.829 65.3685 136.641 64.4787 136.954 63.1097C137.08 62.5591 137.113 62.0774 137.11 61.2917L137.107 60.8673C137.107 60.5833 137.068 60.3739 136.964 60.0415L136.903 59.8533C136.45 58.4748 136.607 57.3351 138.058 54.3898C138.687 53.115 138.689 51.6853 138.218 51.1643C137.838 50.744 137.178 51.2911 136.556 53.0884L136.513 53.2129L136.496 53.2527L133.499 58.6661C133.435 58.7813 133.29 58.823 133.175 58.7592C133.073 58.7025 133.028 58.5816 133.064 58.4745L133.082 58.4352L136.068 53.0399L136.103 52.9394Z" fill="#FFDECC"/>
<path d="M142.733 54.0056C142.846 54.072 142.885 54.2181 142.818 54.3317L142.724 54.4889C142.649 54.6126 142.563 54.7504 142.469 54.8987C142.199 55.3226 141.911 55.7466 141.618 56.1431C141.352 56.5025 141.093 56.822 140.846 57.0915C140.179 57.8193 139.626 58.1669 139.155 57.9835C138.246 57.6305 137.971 56.9361 138.219 56.0743C138.326 55.7032 138.524 55.3154 138.787 54.9224C138.926 54.7145 139.075 54.5181 139.224 54.3388L139.307 54.2406C139.357 54.1819 139.398 54.1369 139.426 54.1075C139.516 54.0117 139.667 54.0073 139.763 54.0977C139.858 54.1881 139.863 54.339 139.772 54.4347L139.699 54.5155C139.669 54.5506 139.632 54.5934 139.59 54.6434C139.452 54.8107 139.312 54.9943 139.183 55.1877C138.945 55.543 138.768 55.8894 138.677 56.2062C138.493 56.8456 138.666 57.2821 139.328 57.5392C139.535 57.6198 139.96 57.3526 140.495 56.7693C140.73 56.5133 140.978 56.2063 141.235 55.8594C141.464 55.5501 141.69 55.2226 141.906 54.8915L142.067 54.6426C142.159 54.4973 142.243 54.3624 142.316 54.2414L142.407 54.091C142.473 53.9773 142.619 53.9391 142.733 54.0056Z" fill="#FFDECC"/>
<path d="M143.586 56.8632C143.637 56.742 143.777 56.6852 143.898 56.7366C144.02 56.7879 144.076 56.9278 144.025 57.049L143.967 57.1793L143.864 57.3958C143.845 57.4341 143.825 57.4734 143.805 57.5137C143.629 57.8593 143.43 58.2049 143.21 58.5287C142.494 59.5816 141.727 60.182 140.905 60.0558C140.13 59.9363 139.787 59.4069 139.804 58.6626C139.81 58.3873 139.864 58.0981 139.95 57.8093C139.971 57.7384 139.993 57.6707 140.016 57.6069L140.078 57.4437C140.086 57.424 140.092 57.4083 140.097 57.3967C140.151 57.2764 140.291 57.222 140.412 57.2753C140.532 57.3287 140.587 57.4695 140.533 57.5899L140.503 57.6621C140.476 57.7331 140.441 57.83 140.407 57.9455C140.332 58.1967 140.285 58.4459 140.28 58.6731C140.269 59.1991 140.467 59.5058 140.978 59.5845C141.556 59.6734 142.195 59.1738 142.815 58.2607C143.023 57.9551 143.213 57.6264 143.38 57.2976C143.419 57.2208 143.455 57.1478 143.487 57.0793L143.578 56.8821C143.581 56.8746 143.584 56.8683 143.586 56.8632Z" fill="#FFDECC"/>
<path d="M144.832 58.941C144.872 58.8157 145.007 58.7472 145.132 58.7878C145.257 58.8285 145.326 58.963 145.285 59.0882L145.243 59.2083C145.21 59.3009 145.17 59.4039 145.125 59.5147C144.995 59.8314 144.844 60.1482 144.671 60.4453C144.002 61.5976 143.195 62.1711 142.272 61.7364C141.683 61.4593 141.438 61.0169 141.516 60.4905C141.562 60.1736 141.72 59.8502 141.953 59.5278C142.048 59.3968 142.149 59.2747 142.25 59.1643L142.345 59.064C142.362 59.0464 142.377 59.0319 142.388 59.0208C142.484 58.9302 142.635 58.9343 142.725 59.0299C142.816 59.1255 142.812 59.2764 142.716 59.3669L142.659 59.4249C142.642 59.4424 142.623 59.4629 142.601 59.4861C142.512 59.5837 142.423 59.6919 142.34 59.8069C142.148 60.0728 142.021 60.3323 141.988 60.5599C141.941 60.8761 142.074 61.1164 142.475 61.305C143.097 61.5978 143.699 61.1694 144.259 60.2057C144.419 59.9293 144.562 59.6316 144.684 59.3338L144.741 59.1913C144.783 59.0816 144.814 58.9957 144.832 58.941Z" fill="#FFDECC"/>
<path fill-rule="evenodd" clip-rule="evenodd" d="M59.8151 119.31L103.282 117.2L103.496 236.196L87.6784 235.774L80.3203 154.749L68.4688 236.295L51.375 236.831L59.8151 119.31Z" fill="#7B7B7B"/>
<path fill-rule="evenodd" clip-rule="evenodd" d="M93.4473 128.395C97.982 68.2517 85.8692 52.8992 85.8692 52.8992H64.7473L65.6424 128.078C65.6424 128.078 79.9625 133.806 93.4473 128.395Z" fill="#79ADDC"/>
<path d="M83.7915 57.8717C83.9119 57.8115 84.0583 57.8603 84.1186 57.9808C84.1788 58.1012 84.1299 58.2477 84.0095 58.3079C83.5431 58.541 83.0673 58.7494 82.5827 58.9337C78.8395 60.357 74.8524 60.2994 71.0957 59.3499C70.5127 59.2025 69.9867 59.0445 69.5262 58.8864L69.1959 58.7685L68.949 58.6726C68.8248 58.6206 68.7663 58.4778 68.8183 58.3536C68.8703 58.2294 69.0131 58.1708 69.1373 58.2228L69.2752 58.2772C69.3915 58.3218 69.5283 58.3715 69.6846 58.4252C70.1327 58.5791 70.6458 58.7332 71.2152 58.8771C74.8833 59.8043 78.7734 59.8604 82.4094 58.4779C82.8789 58.2994 83.3398 58.0976 83.7915 57.8717Z" fill="#79ADDC"/>
<path fill-rule="evenodd" clip-rule="evenodd" d="M66.5598 31.6214C66.5598 31.6214 65.062 18.4686 81.557 19.4387C90.7435 20.6009 90.2202 35.8962 90.2202 35.8962C90.2202 35.8962 90.7975 39.1213 89.5241 42.4024C88.0975 46.0782 84.559 47.2467 79.9238 47.5697C71.3311 47.0929 67.9616 42.2949 67.9616 42.2949C67.9616 42.2949 62.0321 42.6185 62.6793 35.1791C63.3258 28.2794 66.5598 31.6214 66.5598 31.6214Z" fill="#FFDECC"/>
<path fill-rule="evenodd" clip-rule="evenodd" d="M68.1144 22.599C68.1144 25.9786 65.3744 28.718 61.9954 28.718C58.6158 28.718 55.8757 25.9786 55.8757 22.599C55.8757 19.2194 58.6158 16.48 61.9954 16.48C65.3744 16.48 68.1144 19.2194 68.1144 22.599Z" fill="#7B7B7B"/>
<path fill-rule="evenodd" clip-rule="evenodd" d="M90.1402 36.3712C90.1402 36.3712 92.1498 32.8867 93.3564 28.7321C94.5624 24.5782 86.6557 16.269 85.5838 15.5996C84.5113 14.9289 83.9754 14.2594 76.6046 16.9397C54.7236 17.8152 59.9145 37.8626 59.9145 37.8626C59.9145 37.8626 57.3664 39.7063 58.8407 44.6645C60.5826 49.6232 67.4321 49.7962 67.4321 49.7962L67.6711 42.0395C67.6711 42.0395 65.3564 42.2137 63.6138 39.5334C61.8719 36.8531 63.3767 33.5962 64.4492 33.3279C65.4041 32.6121 67.7907 32.97 67.7907 35.834C67.7907 37.2759 70.5352 34.0444 71.6096 28.5547C79.2474 27.0811 81.161 21.7637 81.161 21.7637C81.161 21.7637 81.4292 26.856 80.2226 29.0004C84.2437 27.7944 86.388 25.65 85.7173 23.3722C90.2743 25.3824 90.1402 36.3712 90.1402 36.3712Z" fill="#7B7B7B"/>
<path fill-rule="evenodd" clip-rule="evenodd" d="M67.4322 50.7509L67.6261 39.1854L82.7046 39.5332C82.7046 39.5332 82.6474 47.4297 82.9456 50.6332C90.7029 56.7376 69.4017 58.985 66.359 53.257C65.2052 51.0859 67.4322 50.7509 67.4322 50.7509Z" fill="#FFDECC"/>
<path fill-rule="evenodd" clip-rule="evenodd" d="M81.5028 33.8856C81.2211 36.817 78.9337 38.9951 76.3959 38.7503C73.8573 38.5056 72.0289 35.9308 72.3112 33C72.5935 30.0686 74.8802 27.8906 77.4181 28.1353C79.9566 28.3801 81.785 30.9549 81.5028 33.8856Z" fill="white"/>
<path d="M71.995 32.9695C71.6968 36.066 73.6416 38.8041 76.3656 39.0667C79.0894 39.3294 81.5219 37.0126 81.8194 33.916C82.1176 30.8196 80.1728 28.0815 77.4489 27.8189C74.7252 27.5562 72.2932 29.8728 71.995 32.9695ZM77.3878 28.4517C79.7405 28.6785 81.453 31.0895 81.1866 33.8551C80.9209 36.6208 78.7791 38.6608 76.4266 38.4339C74.0739 38.2071 72.3615 35.7961 72.6278 33.0305C72.8899 30.3085 74.9681 28.2898 77.276 28.4426L77.3878 28.4517Z" fill="#7B7B7B"/>
<path fill-rule="evenodd" clip-rule="evenodd" d="M91.7673 33.4917C91.4851 36.4231 89.3293 38.6139 86.9529 38.3844C84.5758 38.1555 82.879 35.5941 83.1613 32.6627C83.4436 29.7313 85.5994 27.5405 87.9758 27.77C90.3522 27.9989 92.0496 30.561 91.7673 33.4917Z" fill="white"/>
<path d="M82.8448 32.6322C82.547 35.7257 84.3544 38.4535 86.9224 38.7008C89.4898 38.9487 91.7859 36.6154 92.0837 33.5222C92.3816 30.4294 90.5736 27.7009 88.0063 27.4536C85.4387 27.2057 83.1427 29.539 82.8448 32.6322ZM87.9452 28.0864C90.1304 28.2969 91.7176 30.6921 91.4509 33.4612C91.1842 36.2307 89.1687 38.279 86.9834 38.068C84.7976 37.8575 83.2109 35.463 83.4777 32.6932C83.7443 29.9236 85.7599 27.8754 87.9452 28.0864Z" fill="#7B7B7B"/>
<path d="M82.2514 34.5277C82.368 34.4188 82.5449 34.4147 82.6661 34.5113L82.7006 34.5433L84.3714 36.3335C84.4827 36.4528 84.4842 36.6342 84.3822 36.7551L84.3485 36.7894L82.5316 38.382C82.3995 38.4977 82.1987 38.4845 82.083 38.3524C81.9778 38.2324 81.9791 38.0555 82.0795 37.9374L82.1125 37.9039L83.6827 36.5272L82.2359 34.977C82.127 34.8603 82.1228 34.6835 82.2194 34.5623L82.2514 34.5277Z" fill="#FFDECC"/>
<path d="M78.6394 39.1836C78.6863 39.0144 78.8615 38.9154 79.0307 38.9624L79.2524 39.0202L79.3173 39.0363C79.545 39.0925 79.7931 39.1488 80.0529 39.2013C80.4614 39.2838 80.8596 39.349 81.2319 39.3903C81.8332 39.4571 82.3296 39.4572 82.6753 39.3804C82.8467 39.3424 83.0165 39.4505 83.0545 39.6219C83.0925 39.7933 82.9844 39.9631 82.813 40.0011C82.385 40.0961 81.8264 40.096 81.1617 40.0222C80.769 39.9785 80.3528 39.9104 79.9271 39.8244C79.7252 39.7837 79.5302 39.7407 79.3457 39.6972L79.0356 39.6211C78.9583 39.6014 78.8991 39.5856 78.8606 39.5749C78.6914 39.5279 78.5924 39.3527 78.6394 39.1836Z" fill="#7B7B7B"/>
<path fill-rule="evenodd" clip-rule="evenodd" d="M98.2202 57.9108C98.2202 57.9108 103.332 57.9063 116.836 81.5388C123.519 71.0376 128.602 64.5892 128.602 64.5892L138.731 72.4667C138.731 72.4667 127.863 103.019 116.657 103.019C111.404 103.019 107.757 98.3891 104.187 93.9497C98.999 87.4976 94.9983 80.465 94.9983 80.465C94.9983 80.465 91.187 61.8498 98.2202 57.9108Z" fill="#FFC09F"/>
<path fill-rule="evenodd" clip-rule="evenodd" d="M83.0054 50.3929C83.0054 50.3929 85.6907 60.4167 89.6285 97.5593C92.4499 124.175 92.97 186.313 92.97 186.313C92.97 186.313 104.983 185.039 105.619 182.256C107.374 174.571 106.059 131.567 105.141 112.565C103.471 77.9587 103.471 66.6222 100.369 58.985C97.0699 57.2475 94.4614 55.7631 88.7334 53.4362C87.4536 52.9162 85.7607 51.1463 84.9742 50.7509C82.8362 49.6765 83.0054 50.3929 83.0054 50.3929Z" fill="#FFC09F"/>
<path d="M102.495 69.4076C102.67 69.3956 102.822 69.5279 102.834 69.7031L102.952 71.5484C102.997 72.2964 103.047 73.1298 103.099 74.0443L103.203 75.9029C103.358 78.7517 103.512 81.8724 103.658 85.2267L103.683 85.7879C103.921 91.3368 104.12 97.1042 104.266 103.011C104.27 103.186 104.132 103.332 103.956 103.337C103.781 103.341 103.635 103.202 103.631 103.026C103.495 97.5455 103.314 92.1844 103.098 87.0068L102.999 84.6979C102.844 81.1873 102.68 77.9393 102.516 74.9988L102.364 72.3628L102.199 69.7464C102.188 69.5713 102.32 69.4196 102.495 69.4076Z" fill="#7B7B7B"/>
<path d="M81.6882 32.0792C82.1156 31.9044 82.5725 31.8694 83.0109 32.0733C83.1061 32.1176 83.1979 32.1726 83.2858 32.2386C83.4262 32.3439 83.4546 32.5432 83.3492 32.6836C83.2439 32.824 83.0446 32.8524 82.9042 32.747C82.8516 32.7076 82.7978 32.6753 82.7428 32.6498C82.4898 32.5321 82.2074 32.5537 81.9289 32.6676C81.8407 32.7037 81.7776 32.7385 81.7493 32.7573C81.6032 32.8547 81.4059 32.8152 81.3085 32.6691C81.2112 32.523 81.2507 32.3256 81.3968 32.2283C81.458 32.1874 81.5574 32.1327 81.6882 32.0792Z" fill="#7B7B7B"/>
<path d="M74.8871 46.4621C75.5341 46.6172 76.2771 46.7404 77.0971 46.8344C78.6428 47.0115 80.2535 47.0695 81.6264 47.0589L82.1035 47.0519C82.2351 47.0483 82.3448 47.152 82.3484 47.2836C82.352 47.4152 82.2483 47.5249 82.1167 47.5285L81.924 47.5323C80.4723 47.5542 78.723 47.5006 77.0429 47.3081C76.2049 47.2121 75.4435 47.0858 74.7759 46.9257C74.6479 46.895 74.5689 46.7664 74.5996 46.6383C74.6273 46.5231 74.7343 46.4476 74.8487 46.4561L74.8871 46.4621Z" fill="#FFDECC"/>
<path fill-rule="evenodd" clip-rule="evenodd" d="M51.3226 58.2689C53.8917 57.0063 58.895 55.2396 62.0629 53.3763C64.0909 52.183 65.7108 50.5955 67.3128 50.0348C76.6214 88.8183 71.8895 166.107 70.0986 187.587C57.9274 189.377 50.0105 184.165 50.0105 184.165C50.0105 184.165 49.8032 130.272 50.568 105.883C51.2038 85.5957 50.0372 58.9009 51.3226 58.2689Z" fill="#FFC09F"/>
<path d="M66.9888 49.6178C67.1316 49.5158 67.3301 49.5489 67.4322 49.6917C67.525 49.8216 67.5061 49.9974 67.3945 50.105L67.3583 50.1351L62.5405 53.5765L62.5458 53.7217C62.5539 53.928 62.5678 54.17 62.5888 54.448L62.5998 54.59C62.677 55.5488 62.8172 56.7131 63.0363 58.0886L63.1288 58.6539C63.7522 62.3686 64.8153 66.873 66.4188 72.2039L66.9235 73.875C70.3901 85.4209 71.5718 91.2757 73.3558 104.528C73.3793 104.702 73.2572 104.862 73.0832 104.885C72.9092 104.908 72.7492 104.786 72.7258 104.612L72.4753 102.773C70.8288 90.824 69.6061 85.0203 66.3141 74.0561L65.9348 72.8002C64.1699 66.9864 63.0363 62.1312 62.4085 58.1886C62.2016 56.8898 62.0639 55.7747 61.9827 54.8388L61.9661 54.641C61.9316 54.2122 61.9136 53.8822 61.9064 53.649L61.9026 53.4156C61.9032 53.326 61.9396 53.2431 62.0022 53.1839L62.0357 53.1564L66.9888 49.6178Z" fill="#7B7B7B"/>
<path fill-rule="evenodd" clip-rule="evenodd" d="M78.8886 33.1286C78.8886 33.854 78.5676 34.4414 78.1721 34.4414C77.7773 34.4414 77.4563 33.854 77.4563 33.1286C77.4563 32.4038 77.7773 31.8164 78.1721 31.8164C78.5676 31.8164 78.8886 32.4038 78.8886 33.1286Z" fill="#7B7B7B"/>
<path fill-rule="evenodd" clip-rule="evenodd" d="M88.1963 33.2481C88.1963 33.9729 87.8759 34.5603 87.4805 34.5603C87.0851 34.5603 86.7646 33.9729 86.7646 33.2481C86.7646 32.5227 87.0851 31.9353 87.4805 31.9353C87.8759 31.9353 88.1963 32.5227 88.1963 33.2481Z" fill="#7B7B7B"/>
<path d="M82.9194 49.6201C83.0079 49.4873 83.179 49.4426 83.3192 49.5087L83.3602 49.5319L88.3724 52.8727C88.4333 52.9134 88.4784 52.9739 88.4999 53.0439L88.5356 53.1662C88.5638 53.2653 88.5963 53.3846 88.6329 53.5243L88.7039 53.8016C88.7886 54.1398 88.8801 54.5296 88.9768 54.9718L89.078 55.4449C89.3815 56.8946 89.6832 58.6182 89.9682 60.6259L90.0155 60.9631C91.5532 72.0409 92.0541 87.1166 90.9 106.617C90.8896 106.793 90.7391 106.926 90.5639 106.916C90.3886 106.906 90.2549 106.755 90.2653 106.58L90.3324 105.418C91.3966 86.5198 90.8869 71.8648 89.3858 61.0505L89.2915 60.3859C89.0067 58.4236 88.7066 56.7448 88.4058 55.3393L88.3557 55.1076C88.2604 54.6719 88.1705 54.2887 88.0874 53.957L87.9758 53.5267L87.9235 53.3375L83.0076 50.0609C82.8748 49.9724 82.8301 49.8013 82.8962 49.6611L82.9194 49.6201Z" fill="#7B7B7B"/>
<path fill-rule="evenodd" clip-rule="evenodd" d="M76.0246 108.372L85.6123 79.7243C85.7699 79.2526 86.2118 78.9341 86.7102 78.9341H112.507C113.308 78.9341 113.867 79.7281 113.597 80.4821L103.616 108.36C103.456 108.809 103.037 109.113 102.561 109.127L77.1582 109.897C76.3527 109.921 75.7691 109.136 76.0246 108.372Z" fill="#7B7B7B"/>
<path fill-rule="evenodd" clip-rule="evenodd" d="M77.3891 108.04L86.8089 79.8915C87.0002 79.3193 87.5362 78.9341 88.1388 78.9341H114.254C114.814 78.9341 115.205 79.4891 115.017 80.0168L104.898 108.28C104.72 108.777 104.257 109.114 103.73 109.13L78.761 109.886C77.7858 109.916 77.0795 108.965 77.3891 108.04Z" fill="white"/>
<path fill-rule="evenodd" clip-rule="evenodd" d="M90.3209 81.688C90.6088 82.0167 90.4957 82.5863 90.0691 82.9595C89.6425 83.3327 89.0633 83.3689 88.7754 83.0403C88.488 82.7116 88.6012 82.1426 89.0277 81.7688C89.4543 81.3956 90.0335 81.3594 90.3209 81.688Z" fill="#7B7B7B"/>
<path fill-rule="evenodd" clip-rule="evenodd" d="M89.97 82.0229C90.1188 82.1939 90.0609 82.4889 89.8391 82.6828C89.6172 82.8767 89.3171 82.8958 89.1677 82.7248C89.0183 82.5544 89.0768 82.2588 89.298 82.0649C89.5199 81.871 89.8206 81.8526 89.97 82.0229Z" fill="#FFC09F"/>
<path d="M72.268 32.6851C72.4419 32.6612 72.6023 32.7829 72.6261 32.9568C72.648 33.1162 72.5477 33.2642 72.3968 33.3062L72.3545 33.315L67.3563 34.0016C67.1824 34.0255 67.022 33.9038 66.9981 33.7299C66.9762 33.5705 67.0766 33.4224 67.2274 33.3805L67.2698 33.3717L72.268 32.6851Z" fill="#7B7B7B"/>
<path fill-rule="evenodd" clip-rule="evenodd" d="M87.5791 103.117C89.0629 102.994 89.8506 102.385 89.7273 101.148C91.5169 100.611 91.3382 99.0994 91.3382 99.0994C91.3382 99.0994 94.77 99.0931 95.3669 97.6347C95.599 97.0682 95.1718 96.4534 94.5614 96.4032C87.2186 95.8063 82.0297 91.8405 82.0297 91.8405C82.0297 91.8405 84.977 87.6357 84.6979 85.6738C84.6153 85.0927 83.8606 84.8957 83.5008 85.3578C80.4155 89.3166 74.2965 92.3701 74.2965 92.3701C74.2965 92.3701 66.9098 99.1051 74.7803 102.312C74.7803 102.312 80.7798 104.797 84.9834 104.549C86.9739 104.432 87.5791 103.117 87.5791 103.117Z" fill="#FFDECC"/>
<path d="M85.9406 97.7181C86.0064 97.604 86.1522 97.5649 86.2662 97.6307C86.7934 97.9346 87.4119 98.1844 88.1033 98.3838C88.9468 98.6271 89.8533 98.7839 90.7603 98.8711C91.0144 98.8956 91.254 98.913 91.4749 98.9246L91.7609 98.9367C91.8543 98.9397 91.9233 98.9408 91.9648 98.9408C92.0965 98.9408 92.2032 99.0476 92.2032 99.1792C92.2032 99.3109 92.0965 99.4176 91.9648 99.4176L91.8029 99.415C91.75 99.4136 91.688 99.4115 91.6175 99.4086C91.3448 99.3974 91.0413 99.3772 90.7146 99.3457C89.7805 99.2559 88.846 99.0942 87.9712 98.8419C87.2451 98.6325 86.5915 98.3686 86.028 98.0437C85.914 97.978 85.8748 97.8322 85.9406 97.7181Z" fill="#FFDECC"/>
<path d="M85.2181 99.9679C85.277 99.8501 85.4202 99.8024 85.5379 99.8613C85.6182 99.9014 85.6993 99.9404 85.7813 99.9782C86.6638 100.385 87.612 100.648 88.5606 100.793C88.8263 100.834 89.0767 100.863 89.3076 100.883L89.477 100.895C89.6412 100.906 89.7571 100.91 89.8167 100.91C89.9483 100.91 90.0551 101.017 90.0551 101.148C90.0551 101.28 89.9483 101.387 89.8167 101.387L89.7433 101.386C89.6708 101.384 89.5706 101.38 89.4456 101.371C89.1563 101.352 88.8345 101.318 88.4882 101.265C87.4984 101.113 86.5082 100.839 85.5816 100.411C85.4951 100.371 85.4094 100.33 85.3247 100.288C85.2069 100.229 85.1592 100.086 85.2181 99.9679Z" fill="#FFDECC"/>
<path d="M83.8756 102.473C83.9346 102.356 84.0778 102.308 84.1956 102.367C84.4349 102.487 85.0051 102.604 85.781 102.704C86.0782 102.742 86.3917 102.777 86.7094 102.807L87.1733 102.848L87.5943 102.879C87.7257 102.888 87.8254 103.001 87.8169 103.133C87.8085 103.264 87.6951 103.364 87.5637 103.355L87.1345 103.323C87.0867 103.319 87.0375 103.315 86.9872 103.311C86.5555 103.274 86.1237 103.229 85.7199 103.177L85.4359 103.138C84.7503 103.04 84.2516 102.928 83.982 102.793C83.8643 102.734 83.8167 102.591 83.8756 102.473Z" fill="#FFDECC"/>
<path fill-rule="evenodd" clip-rule="evenodd" d="M49.7709 59.1043C55.1862 55.0775 61.0884 60.1914 59.3179 72.2304C55.738 86.0731 53.2707 92.9143 53.2707 92.9143L75.0493 91.8653C75.0493 91.8653 75.0493 97.3893 75.7652 105.981C59.2969 108.283 45.7734 110.278 40.5825 108.487C38.8139 107.878 35.9289 107.414 35.8418 100.617C35.6969 89.2849 41.9723 64.9035 49.7709 59.1043Z" fill="#FFC09F"/>
<path d="M57.4949 73.4934C57.5327 73.3219 57.7023 73.2136 57.8737 73.2514C58.0452 73.2892 58.1535 73.4589 58.1157 73.6303L57.6508 75.7254C56.5226 80.7769 55.5325 84.9705 54.683 88.3653L54.3003 89.8772C54.1402 90.5018 53.9934 91.0637 53.8601 91.5644L53.7075 92.1322L53.6354 92.3954L75.0327 91.2887C75.2005 91.28 75.3434 91.4027 75.3644 91.5648L75.367 91.6061L75.3738 92.6399L75.3824 93.3594C75.3914 94.0249 75.4043 94.7593 75.4217 95.5579L75.4465 96.6166C75.5183 99.473 75.6344 102.593 75.8046 105.91C75.8129 106.071 75.6997 106.212 75.5412 106.239L74.8041 106.365C67.3428 107.622 57.2362 108.903 51.4452 109.341C51.2701 109.354 51.1174 109.223 51.1042 109.048C51.0909 108.873 51.2221 108.72 51.3972 108.707L51.9884 108.661C57.7366 108.193 67.1712 106.992 74.3237 105.801L75.1553 105.66L75.1384 105.322C74.9849 102.23 74.8784 99.3154 74.811 96.6325L74.7861 95.5718C74.7687 94.7713 74.7558 94.0351 74.7467 93.3678L74.7335 92.1049L74.7323 91.9406L53.2272 93.0533C53.0237 93.0638 52.8671 92.8844 52.8962 92.6899L52.9053 92.648L53.1609 91.7178L53.4551 90.6062C53.5831 90.1158 53.7214 89.578 53.8698 88.9916L54.2051 87.6543C55.1385 83.8964 56.2362 79.201 57.4949 73.4934Z" fill="#7B7B7B"/>
<path d="M53.2515 92.3379C53.4267 92.3272 53.5774 92.4607 53.588 92.6359C53.5978 92.7965 53.4865 92.9365 53.3329 92.9669L53.29 92.9724L46.0705 93.4105C45.8953 93.4211 45.7446 93.2877 45.734 93.1124C45.7242 92.9518 45.8356 92.8118 45.9891 92.7814L46.032 92.7759L53.2515 92.3379Z" fill="#7B7B7B"/>
<path d="M70.0646 91.7221C70.2254 91.7257 70.3558 91.8481 70.3735 92.0037L70.3755 92.0469L70.1371 103.026C70.1332 103.201 69.9879 103.34 69.8124 103.337C69.6515 103.333 69.5211 103.211 69.5034 103.055L69.5015 103.012L69.7399 92.0331C69.7437 91.8576 69.889 91.7184 70.0646 91.7221Z" fill="#7B7B7B"/>
<path d="M51.2859 123.03L62.2658 124.542C62.4088 124.562 62.5186 124.675 62.5374 124.814L62.5403 124.857V147.642C62.5403 149.761 60.7067 151.402 58.6154 151.187L58.507 151.174L50.8425 150.151C50.6685 150.128 50.5463 149.968 50.5695 149.794C50.5908 149.635 50.7269 149.519 50.8834 149.519L50.9266 149.521L58.5911 150.544C60.3133 150.773 61.8467 149.463 61.9029 147.74L61.9045 147.642L61.9044 125.134L51.1991 123.659C51.0397 123.637 50.9243 123.501 50.9246 123.344L50.9276 123.301C50.9495 123.142 51.0862 123.026 51.2427 123.026L51.2859 123.03Z" fill="#7B7B7B"/>
<path d="M51.2428 60.4595C51.4915 60.4906 51.9079 60.5916 52.4365 60.8026C53.3089 61.1508 54.1796 61.6895 54.9908 62.4581C56.7368 64.1127 57.9609 66.5923 58.4396 70.0391C58.4637 70.213 58.3423 70.3735 58.1685 70.3977C57.9946 70.4218 57.834 70.3004 57.8099 70.1265C57.3505 66.8191 56.192 64.4723 54.5535 62.9196C53.8033 62.2087 53.0012 61.7125 52.2008 61.393C51.9224 61.2819 51.6649 61.2008 51.4352 61.1451L51.315 61.1176C51.2444 61.1026 51.1934 61.094 51.164 61.0903C50.9898 61.0686 50.8662 60.9097 50.888 60.7355C50.9079 60.5758 51.0431 60.4587 51.1997 60.457L51.2428 60.4595Z" fill="#7B7B7B"/>
<path d="M104.958 121.811C105.124 121.754 105.305 121.843 105.362 122.009C105.414 122.161 105.344 122.326 105.204 122.396L105.164 122.413L99.8073 124.248L99.8076 147.071C99.8076 148.082 100.78 148.8 101.738 148.521L101.811 148.498L105.593 147.189C105.759 147.131 105.94 147.219 105.998 147.385C106.05 147.537 105.981 147.702 105.841 147.772L105.801 147.789L102.019 149.098C100.653 149.571 99.2289 148.585 99.1735 147.157L99.1719 147.071V124.021C99.1719 123.9 99.2401 123.792 99.3455 123.738L99.3867 123.72L104.958 121.811Z" fill="#7B7B7B"/>
<path d="M128.27 64.6499C128.365 64.5151 128.544 64.4764 128.684 64.5537L128.721 64.5777L138.921 72.2123C139.062 72.3175 139.09 72.5167 138.985 72.6573C138.89 72.785 138.716 72.8203 138.58 72.7467L138.54 72.7213L128.603 65.283L113.755 86.4943C113.664 86.625 113.492 86.6658 113.353 86.5965L113.313 86.5724C113.182 86.4809 113.141 86.3088 113.21 86.1702L113.234 86.1297L128.27 64.6499Z" fill="#7B7B7B"/>
</g>
<defs>
<clipPath id="clip0">
<rect width="109" height="117" fill="white" transform="translate(35.8394 15)"/>
</clipPath>
</defs>
</svg>
