<svg width="134" height="180" viewBox="0 0 134 180" fill="none" xmlns="http://www.w3.org/2000/svg">
<mask id="mask0" mask-type="alpha" maskUnits="userSpaceOnUse" x="0" y="0" width="134" height="180">
<rect width="134" height="180" rx="14" fill="#FFEE93"/>
</mask>
<g mask="url(#mask0)">
<rect width="134" height="180" rx="14" fill="#FF9393"/>
<path d="M126.204 107.961C101.354 103.254 87.1055 116.952 79.2102 123.11C70.8376 130.764 65.5453 143.971 70.8737 169.307C76.2021 194.643 91.9059 186.513 133.483 176.178C175.06 165.843 157.265 113.846 126.204 107.961Z" fill="#79ADDC"/>
<path d="M126.204 107.961C101.354 103.254 87.1055 116.952 79.2102 123.11C70.8376 130.764 65.5453 143.971 70.8737 169.307C76.2021 194.643 91.9059 186.513 133.483 176.178C175.06 165.843 157.265 113.846 126.204 107.961Z" fill="#79ADDC"/>
<path d="M48.3059 122.142C41.1629 97.8799 22.4735 91.4463 13.3925 87.2282C2.76233 83.2677 -11.4042 84.5805 -31.5223 100.877C-51.6403 117.174 -37.2429 127.442 -9.08414 159.73C19.0747 192.018 57.2347 152.469 48.3059 122.142Z" fill="#79ADDC"/>
<path d="M48.3059 122.142C41.1629 97.8799 22.4735 91.4463 13.3925 87.2282C2.76233 83.2677 -11.4042 84.5805 -31.5223 100.877C-51.6403 117.174 -37.2429 127.442 -9.08414 159.73C19.0747 192.018 57.2347 152.469 48.3059 122.142Z" fill="#79ADDC"/>
<path d="M110.835 -18.8945C98.151 -21.2975 90.8777 -14.3051 86.8475 -11.1617C82.5738 -7.25468 79.8724 -0.513579 82.5922 12.4192C85.3121 25.352 93.328 21.2019 114.551 15.9265C135.774 10.6511 126.691 -15.8907 110.835 -18.8945Z" fill="#79ADDC"/>
<path d="M110.835 -18.8945C98.151 -21.2975 90.8777 -14.3051 86.8475 -11.1617C82.5738 -7.25468 79.8724 -0.513579 82.5922 12.4192C85.3121 25.352 93.328 21.2019 114.551 15.9265C135.774 10.6511 126.691 -15.8907 110.835 -18.8945Z" fill="#79ADDC"/>
<path d="M18.3731 16.0858C16.1173 15.6585 14.8238 16.902 14.107 17.4611C13.347 18.1559 12.8665 19.3548 13.3502 21.6548C13.8339 23.9548 15.2595 23.2167 19.0339 22.2785C22.8082 21.3403 21.1929 16.62 18.3731 16.0858Z" fill="#79ADDC"/>
<path d="M18.3731 16.0858C16.1173 15.6585 14.8238 16.902 14.107 17.4611C13.347 18.1559 12.8665 19.3548 13.3502 21.6548C13.8339 23.9548 15.2595 23.2167 19.0339 22.2785C22.8082 21.3403 21.1929 16.62 18.3731 16.0858Z" fill="#79ADDC"/>
</g>
</svg>
