<svg width="375" height="812" viewBox="0 0 375 812" fill="none" xmlns="http://www.w3.org/2000/svg">
<g clip-path="url(#clip0)">
<rect width="375" height="812" fill="#FFC09F"/>
<path d="M160.26 633.706C202.271 673.704 246.77 665.051 269.645 663.015C295.301 658.691 321.934 639.838 343.205 584.398C364.476 528.958 324.104 525.074 231.147 493.233C138.189 461.391 107.747 583.708 160.26 633.706Z" fill="#ADF7B6"/>
<path d="M-71.7397 277.706C-29.7294 317.704 14.7703 309.051 37.6447 307.015C63.3007 302.691 89.9336 283.838 111.205 228.398C132.476 172.958 92.1042 169.074 -0.853439 137.233C-93.8111 105.391 -124.253 227.708 -71.7397 277.706Z" fill="#ADF7B6"/>
<path d="M25.7222 787.465C44.1424 805.003 63.6542 801.208 73.6839 800.316C84.9333 798.42 96.611 790.153 105.938 765.845C115.264 741.536 97.5627 739.833 56.8037 725.871C16.0446 711.91 2.69691 765.542 25.7222 787.465Z" fill="#ADF7B6"/>
<path d="M388.014 -27.5667C331.022 -38.3638 298.341 -6.94563 280.233 7.17786C261.03 24.733 248.892 55.022 261.113 113.131C273.334 171.241 309.351 152.594 404.709 128.89C500.067 105.187 459.255 -14.0704 388.014 -27.5667Z" fill="#ADF7B6"/>
</g>
<defs>
<clipPath id="clip0">
<rect width="375" height="812" fill="white"/>
</clipPath>
</defs>
</svg>
