<svg width="109" height="69" viewBox="0 0 109 69" fill="none" xmlns="http://www.w3.org/2000/svg">
<path d="M80.4136 8.41898C62.9232 5.10547 52.8939 14.7474 47.3367 19.0817C41.4436 24.4692 37.7186 33.7646 41.469 51.5978C45.2194 69.4309 56.2728 63.7083 85.5371 56.434C114.801 49.1597 102.277 12.5609 80.4136 8.41898Z" fill="#ADF7B6"/>
<path d="M49.4136 8.41898C31.9232 5.10547 21.8939 14.7474 16.3367 19.0817C10.4436 24.4692 6.71856 33.7646 10.469 51.5978C14.2194 69.4309 25.2728 63.7083 54.5371 56.434C83.8014 49.1597 71.2767 12.5609 49.4136 8.41898Z" fill="#FFC09F"/>
<path d="M35.4955 24.8704C35.4955 25.3327 35.3695 25.7602 35.1175 26.1531L27.9355 36.5184V44.9771C27.9355 45.578 27.7408 46.0864 27.3513 46.5024C26.9619 46.8953 26.4922 47.0918 25.9424 47.0918C25.3697 47.0918 24.8772 46.8953 24.4648 46.5024C24.0754 46.0864 23.8806 45.578 23.8806 44.9771V36.0331L16.733 26.4651C16.3207 25.9104 16.1145 25.3673 16.1145 24.8358C16.1145 24.2349 16.3436 23.738 16.8018 23.3451C17.2829 22.9291 17.7869 22.7211 18.3138 22.7211C18.9552 22.7211 19.5165 23.0447 19.9976 23.6918L26.0455 32.1158L31.7155 23.7611C32.1966 23.0678 32.7693 22.7211 33.4337 22.7211C33.9835 22.7211 34.4646 22.9291 34.8769 23.3451C35.2893 23.7611 35.4955 24.2696 35.4955 24.8704Z" fill="white"/>
<path d="M49.429 28.1984C50.0246 28.1984 50.5172 28.3949 50.9066 28.7878C51.2961 29.1807 51.4908 29.6891 51.4908 30.3131V44.9771C51.4908 45.578 51.2961 46.0864 50.9066 46.5024C50.5172 46.8953 50.0246 47.0918 49.429 47.0918C48.8334 47.0918 48.3408 46.8953 47.9514 46.5024C47.5848 46.1096 47.3901 45.6127 47.3672 45.0118C46.7945 45.682 46.0156 46.2598 45.0305 46.7451C44.0683 47.2073 43.0489 47.4384 41.9721 47.4384C40.3914 47.4384 38.9596 47.034 37.6767 46.2251C36.3938 45.3931 35.3744 44.2491 34.6184 42.7931C33.8853 41.3371 33.5188 39.6847 33.5188 37.8358C33.5188 35.9869 33.8853 34.3344 34.6184 32.8784C35.3515 31.3993 36.348 30.2553 37.608 29.4464C38.8909 28.6144 40.2998 28.1984 41.8347 28.1984C42.9343 28.1984 43.9652 28.4064 44.9274 28.8224C45.8896 29.2153 46.7028 29.7238 47.3672 30.3478V30.3131C47.3672 29.7122 47.5619 29.2153 47.9514 28.8224C48.3408 28.4064 48.8334 28.1984 49.429 28.1984ZM42.4876 43.6251C43.9767 43.6251 45.1908 43.082 46.1301 41.9958C47.0694 40.8864 47.539 39.4998 47.539 37.8358C47.539 36.1718 47.0694 34.7851 46.1301 33.6758C45.1908 32.5664 43.9767 32.0118 42.4876 32.0118C41.0214 32.0118 39.8187 32.5664 38.8794 33.6758C37.9402 34.7851 37.4705 36.1718 37.4705 37.8358C37.4705 39.4998 37.9287 40.8864 38.8451 41.9958C39.7843 43.082 40.9985 43.6251 42.4876 43.6251Z" fill="white"/>
<path d="M68.6741 43.4518C69.1094 43.914 69.327 44.434 69.327 45.0118C69.327 45.5896 69.0979 46.0749 68.6397 46.4678C68.2045 46.8607 67.7348 47.0571 67.2308 47.0571C66.6352 47.0571 66.1312 46.826 65.7189 46.3638L59.5334 39.7771L57.8496 41.3371V44.9771C57.8496 45.578 57.6549 46.0864 57.2655 46.5024C56.876 46.8953 56.3835 47.0918 55.7878 47.0918C55.1922 47.0918 54.6997 46.8953 54.3102 46.5024C53.9208 46.0864 53.726 45.578 53.726 44.9771V23.5531C53.726 22.9522 53.9208 22.4553 54.3102 22.0624C54.6997 21.6464 55.1922 21.4384 55.7878 21.4384C56.3835 21.4384 56.876 21.6464 57.2655 22.0624C57.6549 22.4553 57.8496 22.9522 57.8496 23.5531V36.3798L65.2034 29.2038C65.6387 28.7647 66.1427 28.5451 66.7154 28.5451C67.2194 28.5451 67.6661 28.7647 68.0556 29.2038C68.4679 29.6198 68.6741 30.0473 68.6741 30.4864C68.6741 31.0411 68.3992 31.5611 67.8494 32.0464L62.6605 36.8651L68.6741 43.4518Z" fill="white"/>
<path d="M87.2604 37.8358C87.2604 39.6847 86.848 41.3487 86.0233 42.8278C85.1986 44.2838 84.0646 45.4162 82.6214 46.2251C81.201 47.034 79.6317 47.4384 77.9136 47.4384C76.1725 47.4384 74.5918 47.034 73.1714 46.2251C71.7511 45.4162 70.6285 44.2838 69.8038 42.8278C68.9791 41.3487 68.5667 39.6847 68.5667 37.8358C68.5667 35.9869 68.9791 34.3344 69.8038 32.8784C70.6285 31.3993 71.7511 30.2553 73.1714 29.4464C74.5918 28.6144 76.1725 28.1984 77.9136 28.1984C79.6317 28.1984 81.201 28.6144 82.6214 29.4464C84.0646 30.2553 85.1986 31.3993 86.0233 32.8784C86.848 34.3344 87.2604 35.9869 87.2604 37.8358ZM83.1368 37.8358C83.1368 36.7033 82.8963 35.698 82.4152 34.8198C81.957 33.9184 81.327 33.2251 80.5252 32.7398C79.7463 32.2544 78.8757 32.0118 77.9136 32.0118C76.9514 32.0118 76.0694 32.2544 75.2676 32.7398C74.4887 33.2251 73.8587 33.9184 73.3776 34.8198C72.9194 35.698 72.6903 36.7033 72.6903 37.8358C72.6903 38.9682 72.9194 39.9736 73.3776 40.8518C73.8587 41.73 74.4887 42.4118 75.2676 42.8971C76.0694 43.3824 76.9514 43.6251 77.9136 43.6251C78.8757 43.6251 79.7463 43.3824 80.5252 42.8971C81.327 42.4118 81.957 41.73 82.4152 40.8518C82.8963 39.9736 83.1368 38.9682 83.1368 37.8358Z" fill="white"/>
<path d="M92.0114 44.9771C92.0114 45.578 91.8167 46.0864 91.4272 46.5024C91.0378 46.8953 90.5452 47.0918 89.9496 47.0918C89.354 47.0918 88.8614 46.8953 88.472 46.5024C88.0825 46.0864 87.8878 45.578 87.8878 44.9771V30.6598C87.8878 30.0589 88.0825 29.562 88.472 29.1691C88.8614 28.7531 89.354 28.5451 89.9496 28.5451C90.5452 28.5451 91.0378 28.7531 91.4272 29.1691C91.8167 29.562 92.0114 30.0589 92.0114 30.6598V44.9771ZM89.9152 26.2918C89.1363 26.2918 88.5865 26.1647 88.2658 25.9104C87.9451 25.6562 87.7847 25.2056 87.7847 24.5584V23.8998C87.7847 23.2527 87.9565 22.802 88.3002 22.5478C88.6438 22.2936 89.1936 22.1664 89.9496 22.1664C90.7514 22.1664 91.3127 22.2936 91.6334 22.5478C91.9541 22.802 92.1145 23.2527 92.1145 23.8998V24.5584C92.1145 25.2287 91.9427 25.6909 91.5991 25.9451C91.2783 26.1762 90.7171 26.2918 89.9152 26.2918Z" fill="white"/>
</svg>
