<svg width="134" height="180" viewBox="0 0 134 180" fill="none" xmlns="http://www.w3.org/2000/svg">
<mask id="mask0" mask-type="alpha" maskUnits="userSpaceOnUse" x="0" y="0" width="134" height="180">
<rect width="134" height="180" rx="14" fill="#FFEE93"/>
</mask>
<g mask="url(#mask0)">
<rect width="134" height="180" rx="14" fill="#ADF7B6"/>
<path d="M97.8077 -36.8469C64.2496 -43.2044 45.0069 -24.7049 34.3445 -16.3887C23.0376 -6.052 15.8906 11.7826 23.0864 45.9983C30.2822 80.214 51.4897 69.2343 107.638 55.2774C163.786 41.3206 139.755 -28.9 97.8077 -36.8469Z" fill="#79ADDC"/>
<path d="M97.8077 -36.8469C64.2496 -43.2044 45.0069 -24.7049 34.3445 -16.3887C23.0376 -6.052 15.8906 11.7826 23.0864 45.9983C30.2822 80.214 51.4897 69.2343 107.638 55.2774C163.786 41.3206 139.755 -28.9 97.8077 -36.8469Z" fill="#FFC09F"/>
<path d="M114.204 114.961C89.3545 110.254 75.1055 123.952 67.2102 130.11C58.8376 137.764 53.5453 150.971 58.8737 176.307C64.2021 201.643 79.9059 193.513 121.483 183.178C163.06 172.843 145.265 120.846 114.204 114.961Z" fill="#79ADDC"/>
<path d="M114.204 114.961C89.3545 110.254 75.1055 123.952 67.2102 130.11C58.8376 137.764 53.5453 150.971 58.8737 176.307C64.2021 201.643 79.9059 193.513 121.483 183.178C163.06 172.843 145.265 120.846 114.204 114.961Z" fill="#FFC09F"/>
<path d="M23.8352 85.1055C11.151 82.7025 3.87769 89.6949 -0.152463 92.8383C-4.42621 96.7453 -7.12764 103.486 -4.40778 116.419C-1.68792 129.352 6.32804 125.202 27.5508 119.927C48.7736 114.651 39.6906 88.1093 23.8352 85.1055Z" fill="#79ADDC"/>
<path d="M23.8352 85.1055C11.151 82.7025 3.87769 89.6949 -0.152463 92.8383C-4.42621 96.7453 -7.12764 103.486 -4.40778 116.419C-1.68792 129.352 6.32804 125.202 27.5508 119.927C48.7736 114.651 39.6906 88.1093 23.8352 85.1055Z" fill="#FFC09F"/>
</g>
</svg>
