<svg width="375" height="390" viewBox="0 0 375 390" fill="none" xmlns="http://www.w3.org/2000/svg">
<path d="M0 0H375V361C375 372.046 366.046 381 355 381H20C8.95431 381 0 372.046 0 361V0Z" fill="#FFC09F"/>
<path d="M349.79 146.699C279.78 133.436 239.636 172.03 217.392 189.379C193.803 210.944 178.893 248.151 193.905 319.533C208.917 390.914 253.16 368.008 370.298 338.891C487.436 309.774 437.303 163.278 349.79 146.699Z" fill="#ADF7B6"/>
<path d="M-6.40945 161.546C-49.0937 153.46 -73.5694 176.99 -87.1314 187.568C-101.513 200.715 -110.604 223.4 -101.451 266.921C-92.2984 310.441 -65.3236 296.476 6.09399 278.723C77.5116 260.971 46.9459 171.654 -6.40945 161.546Z" fill="#ADF7B6"/>
</svg>
