<svg width="63" height="68" viewBox="0 0 63 68" fill="none" xmlns="http://www.w3.org/2000/svg">
<path d="M29.6875 67.2951C30.8533 67.7485 32.1467 67.7485 33.3125 67.2951L59.8125 56.9881C61.7342 56.2406 63 54.3901 63 52.3281V15.8205C63 13.7668 61.7442 11.9219 59.8336 11.1688L33.3336 0.722796C32.1553 0.258323 30.8447 0.258324 29.6664 0.722797L3.16637 11.1688C1.25577 11.9219 0 13.7668 0 15.8205V52.3281C0 54.3901 1.26581 56.2406 3.18755 56.9881L29.6875 67.2951Z" fill="#79ADDC"/>
<path d="M37.12 32.232C38.392 32.736 39.424 33.504 40.216 34.536C41.032 35.568 41.44 36.9 41.44 38.532C41.44 41.388 40.624 43.38 38.992 44.508C37.36 45.636 35.416 46.2 33.16 46.2H24.196C23.572 46.2 23.044 45.996 22.612 45.588C22.204 45.156 22 44.628 22 44.004V23.196C22 22.572 22.204 22.056 22.612 21.648C23.044 21.216 23.572 21 24.196 21H33.268C37.828 21 40.108 23.136 40.108 27.408C40.108 28.488 39.844 29.448 39.316 30.288C38.812 31.104 38.08 31.752 37.12 32.232ZM35.428 28.2C35.428 27.216 35.176 26.484 34.672 26.004C34.192 25.5 33.508 25.248 32.62 25.248H26.68V30.864H32.728C33.448 30.864 34.072 30.624 34.6 30.144C35.152 29.664 35.428 29.016 35.428 28.2ZM33.16 42.06C34.288 42.06 35.164 41.76 35.788 41.16C36.436 40.56 36.76 39.684 36.76 38.532C36.76 37.116 36.388 36.192 35.644 35.76C34.9 35.328 33.988 35.112 32.908 35.112H26.68V42.06H33.16Z" fill="white"/>
</svg>
