<svg width="63" height="68" viewBox="0 0 63 68" fill="none" xmlns="http://www.w3.org/2000/svg">
<path d="M29.6875 67.2951C30.8533 67.7485 32.1467 67.7485 33.3125 67.2951L59.8125 56.9881C61.7342 56.2406 63 54.3901 63 52.3281V15.8205C63 13.7668 61.7442 11.9219 59.8336 11.1688L33.3336 0.722796C32.1553 0.258323 30.8447 0.258324 29.6664 0.722797L3.16637 11.1688C1.25577 11.9219 0 13.7668 0 15.8205V52.3281C0 54.3901 1.26581 56.2406 3.18755 56.9881L29.6875 67.2951Z" fill="#FFEE93"/>
<path d="M38.9 22.404C39.644 22.788 40.016 23.4 40.016 24.24C40.016 24.744 39.836 25.236 39.476 25.716C39.092 26.22 38.6 26.472 38 26.472C37.592 26.472 37.184 26.364 36.776 26.148C35.6 25.596 34.328 25.32 32.96 25.32C31.28 25.32 29.816 25.68 28.568 26.4C27.32 27.096 26.36 28.092 25.688 29.388C25.016 30.66 24.68 32.124 24.68 33.78C24.68 36.612 25.436 38.76 26.948 40.224C28.484 41.688 30.488 42.42 32.96 42.42C34.424 42.42 35.696 42.144 36.776 41.592C37.208 41.4 37.592 41.304 37.928 41.304C38.552 41.304 39.08 41.568 39.512 42.096C39.872 42.552 40.052 43.044 40.052 43.572C40.052 43.956 39.956 44.304 39.764 44.616C39.572 44.928 39.296 45.168 38.936 45.336C37.064 46.272 35.072 46.74 32.96 46.74C30.608 46.74 28.448 46.248 26.48 45.264C24.512 44.256 22.94 42.78 21.764 40.836C20.588 38.892 20 36.54 20 33.78C20 31.332 20.552 29.136 21.656 27.192C22.784 25.248 24.332 23.736 26.3 22.656C28.268 21.552 30.488 21 32.96 21C35.096 21 37.076 21.468 38.9 22.404Z" fill="white"/>
</svg>
