<svg width="63" height="68" viewBox="0 0 63 68" fill="none" xmlns="http://www.w3.org/2000/svg">
<path d="M29.6875 67.2951C30.8533 67.7485 32.1467 67.7485 33.3125 67.2951L59.8125 56.9881C61.7342 56.2406 63 54.3901 63 52.3281V15.8205C63 13.7668 61.7442 11.9219 59.8336 11.1688L33.3336 0.722796C32.1553 0.258323 30.8447 0.258324 29.6664 0.722797L3.16637 11.1688C1.25577 11.9219 0 13.7668 0 15.8205V52.3281C0 54.3901 1.26581 56.2406 3.18755 56.9881L29.6875 67.2951Z" fill="#FFC09F"/>
<path d="M31.8 21C34.056 21 35.988 21.564 37.596 22.692C39.228 23.796 40.464 25.308 41.304 27.228C42.168 29.124 42.6 31.248 42.6 33.6C42.6 35.952 42.168 38.088 41.304 40.008C40.464 41.904 39.228 43.416 37.596 44.544C35.988 45.648 34.056 46.2 31.8 46.2H23.196C22.572 46.2 22.044 45.996 21.612 45.588C21.204 45.156 21 44.628 21 44.004V23.196C21 22.572 21.204 22.056 21.612 21.648C22.044 21.216 22.572 21 23.196 21H31.8ZM31.44 42.06C33.6 42.06 35.22 41.268 36.3 39.684C37.38 38.076 37.92 36.048 37.92 33.6C37.92 31.152 37.368 29.136 36.264 27.552C35.184 25.944 33.576 25.14 31.44 25.14H25.5V42.06H31.44Z" fill="white"/>
</svg>
