<svg width="63" height="68" viewBox="0 0 63 68" fill="none" xmlns="http://www.w3.org/2000/svg">
<path d="M29.6875 67.2951C30.8533 67.7485 32.1467 67.7485 33.3125 67.2951L59.8125 56.9881C61.7342 56.2406 63 54.3901 63 52.3281V15.8205C63 13.7668 61.7442 11.9219 59.8336 11.1688L33.3336 0.722796C32.1553 0.258323 30.8447 0.258324 29.6664 0.722797L3.16637 11.1688C1.25577 11.9219 0 13.7668 0 15.8205V52.3281C0 54.3901 1.26581 56.2406 3.18755 56.9881L29.6875 67.2951Z" fill="#FF9393"/>
<path d="M38.256 42.06C38.88 42.06 39.396 42.276 39.804 42.708C40.236 43.116 40.452 43.596 40.452 44.148C40.452 44.748 40.236 45.24 39.804 45.624C39.396 46.008 38.88 46.2 38.256 46.2H26.196C25.572 46.2 25.044 45.996 24.612 45.588C24.204 45.156 24 44.628 24 44.004V23.196C24 22.572 24.204 22.056 24.612 21.648C25.044 21.216 25.572 21 26.196 21H38.256C38.88 21 39.396 21.204 39.804 21.612C40.236 21.996 40.452 22.5 40.452 23.124C40.452 23.724 40.248 24.216 39.84 24.6C39.432 24.96 38.904 25.14 38.256 25.14H28.5V31.26H36.636C37.26 31.26 37.776 31.464 38.184 31.872C38.616 32.256 38.832 32.76 38.832 33.384C38.832 33.984 38.628 34.476 38.22 34.86C37.812 35.22 37.284 35.4 36.636 35.4H28.5V42.06H38.256Z" fill="white"/>
</svg>
