<svg width="135" height="180" viewBox="0 0 135 180" fill="none" xmlns="http://www.w3.org/2000/svg">
<rect width="134" height="180" rx="14" fill="#FFC09F"/>
<mask id="mask0" mask-type="alpha" maskUnits="userSpaceOnUse" x="0" y="0" width="134" height="180">
<rect width="134" height="180" rx="14" fill="#FFEE93"/>
</mask>
<g mask="url(#mask0)">
<rect width="134" height="180" rx="14" fill="#79ADDC"/>
<path d="M88.2038 -47.0388C63.3545 -51.7465 49.1055 -38.0478 41.2102 -31.8898C32.8376 -24.2356 27.5453 -11.0293 32.8737 14.3069C38.2021 39.6431 53.9059 31.5128 95.4829 21.1779C137.06 10.8431 119.265 -41.1543 88.2038 -47.0388Z" fill="#79ADDC"/>
<path d="M88.2038 -47.0388C63.3545 -51.7465 49.1055 -38.0478 41.2102 -31.8898C32.8376 -24.2356 27.5453 -11.0293 32.8737 14.3069C38.2021 39.6431 53.9059 31.5128 95.4829 21.1779C137.06 10.8431 119.265 -41.1543 88.2038 -47.0388Z" fill="#FFEE93"/>
<path d="M44.2038 86.9612C19.3545 82.2535 5.10552 95.9522 -2.78983 102.11C-11.1624 109.764 -16.4547 122.971 -11.1263 148.307C-5.7979 173.643 9.90594 165.513 51.4829 155.178C93.0598 144.843 75.2655 92.8457 44.2038 86.9612Z" fill="#79ADDC"/>
<path d="M44.2038 86.9612C19.3545 82.2535 5.10552 95.9522 -2.78983 102.11C-11.1624 109.764 -16.4547 122.971 -11.1263 148.307C-5.7979 173.643 9.90594 165.513 51.4829 155.178C93.0598 144.843 75.2655 92.8457 44.2038 86.9612Z" fill="#FFEE93"/>
<path d="M114.835 136.106C102.151 133.703 94.8777 140.695 90.8475 143.838C86.5738 147.745 83.8724 154.486 86.5922 167.419C89.3121 180.352 97.328 176.202 118.551 170.926C139.774 165.651 130.691 139.109 114.835 136.106Z" fill="#79ADDC"/>
<path d="M114.835 136.106C102.151 133.703 94.8777 140.695 90.8475 143.838C86.5738 147.745 83.8724 154.486 86.5922 167.419C89.3121 180.352 97.328 176.202 118.551 170.926C139.774 165.651 130.691 139.109 114.835 136.106Z" fill="#FFEE93"/>
</g>
</svg>
